<?xml version="1.0" encoding="UTF-8"?>
<svg id="Layer_1" data-name="Layer 1" xmlns="http://www.w3.org/2000/svg" xmlns:xlink="http://www.w3.org/1999/xlink" viewBox="0 0 1900 300">
  <defs>
    <style>
      .cls-1, .cls-2, .cls-3, .cls-4 {
        fill: none;
      }

      .cls-2 {
        opacity: .5;
      }

      .cls-3 {
        stroke: #33a9ac;
        stroke-miterlimit: 10;
        stroke-width: .84px;
      }

      .cls-4 {
        clip-path: url(#clippath);
      }
    </style>
    <clipPath id="clippath">
      <rect class="cls-1" y=".25" width="1900" height="300"/>
    </clipPath>
  </defs>
  <g class="cls-4">
    <g class="cls-2">
      <path class="cls-3" d="m-24.3,175.19c2.48-30.48,5.59-62.31,30.61-88.61,25.02-26.3,79.38-44.64,124.69-32.58,38.56,10.26,56.31,37.07,75.92,60.03,31.59,36.99,80.73,70.95,145.9,82.11,58.87,10.09,123.34-.08,174.81-20.43,51.47-20.35,91.56-50.01,126.44-81.03,42.84-38.11,93.08-84.04,168.09-83.28,22.64.23,44.63,5.06,64.55,11.72,86.59,28.97,133.12,89.31,210.96,126.59,59.22,28.36,136.23,42.1,210.76,37.61,40-2.41,80.97-10.59,108.35-28.79,38.44-25.56,44.23-66.5,88.09-88.47,45.55-22.82,114.36-15.54,165.3,2.4,50.94,17.94,92.71,44.81,144.53,61.76,51.82,16.95,122.23,21.43,164.15-3.92-8.73-1.83-17.47-3.66-26.2-5.49"/>
      <path class="cls-3" d="m-24.75,178.54c2.86-30.07,6.69-61.31,31.72-87.15,22.67-23.41,68.6-40.47,110.26-35.18,4.3.55,8.55,1.33,12.73,2.37,38.02,9.45,56.2,34.82,76.18,56.65,20.81,22.68,48.65,44.32,83.04,59.94,18.9,8.59,39.73,15.35,62.44,19.4,57.8,10.31,120.66,1.51,171.1-17.09,50.45-18.58,90.04-46.12,125.03-75.36,5.38-4.49,10.88-9.1,16.54-13.74,39.52-32.49,86.31-66.32,150.93-66.22,22.34.02,44.02,4.4,63.68,10.51,33.33,10.38,60.72,25.25,86.29,41.58,39.98,25.51,75.54,54.8,123.29,76.52,28.57,12.99,58.97,25.32,93.09,31.5,20.42,3.7,40.71,5.09,60.91,5.43,19.9.32,40.52-.71,61.48-1.73,7.98-.39,15.91-.8,23.75-1.45,33.15-2.76,65.8-9.21,88.65-22.8,39.15-23.29,44.76-62.74,88.04-83.39,41.04-19.57,100.7-15.19,149.04-1.11,4.62,1.35,9.14,2.78,13.53,4.29,50.28,17.32,91.81,43,142.91,59.03,51.08,16.03,119.95,19.97,161.4-4.76-5.68-2.68-11.74-5.73-17.83-8.77"/>
      <path class="cls-3" d="m-25.21,181.88c3.24-29.65,7.8-60.31,32.84-85.69,22.66-22.98,67.73-39.8,108.74-35.17,4.23.48,8.42,1.18,12.54,2.14,37.48,8.65,56.09,32.58,76.43,53.27,21.24,21.5,49.23,42.17,83.43,57.39,18.79,8.36,39.34,15.05,61.65,19.2,56.73,10.54,117.97,3.1,167.38-13.74,49.44-16.82,88.52-42.23,123.63-69.68,5.41-4.21,10.94-8.55,16.64-12.93,39.7-30.67,86.6-63.26,150.21-63.72,22.04-.19,43.41,3.75,62.8,9.31,32.88,9.45,59.98,23.12,85.28,38.17,39.59,23.49,74.96,50.71,122.92,71.45,30.09,13.02,60.08,27.77,95.76,33.62,21.35,3.5,41.8,3.61,61.85,2.9,19.76-.73,40.76-2.9,62.61-3.73,8.3-.32,16.48-.47,24.55-.86,34.07-1.65,68.24-6.34,91.9-18.86,39.71-21.01,45.29-58.99,88-78.31,40.51-18.32,98.88-13.81,146.5-.18,4.56,1.3,9.01,2.69,13.35,4.15,49.63,16.7,90.9,41.19,141.29,56.29,50.35,15.11,117.67,18.51,158.65-5.61-2.62-3.54-6.02-7.81-9.46-12.05"/>
      <path class="cls-3" d="m-25.66,185.22c3.62-29.24,8.91-59.31,33.96-84.23,22.65-22.55,66.86-39.13,107.23-35.16,4.16.41,8.29,1.04,12.35,1.9,36.95,7.85,55.97,30.34,76.69,49.89,21.67,20.31,49.81,40.02,83.81,54.83,18.68,8.14,38.96,14.75,60.85,18.99,55.66,10.76,115.29,4.69,163.66-10.39,48.42-15.05,87-38.35,122.22-64.01,5.43-3.93,11-8,16.73-12.12,39.89-28.85,86.9-60.19,149.49-61.22,21.74-.4,42.79,3.09,61.93,8.11,32.42,8.53,59.24,20.99,84.27,34.75,39.2,21.46,74.44,46.57,122.54,66.38,31.65,13.04,61.19,30.22,98.42,35.73,22.28,3.3,42.88,2.13,62.79.38,19.63-1.77,41-5.08,63.75-5.73,8.63-.25,17.06-.15,25.34-.27,35-.55,70.55-3.43,95.15-14.91,40.08-18.72,45.82-55.23,87.96-73.23,39.97-17.06,97.05-12.42,143.96.76,4.49,1.26,8.88,2.6,13.16,4,48.97,16.09,89.99,39.38,139.67,53.56,49.62,14.19,115.39,17.05,155.91-6.46.43-4.39-.29-9.88-1.09-15.33"/>
      <path class="cls-3" d="m-26.12,188.56c3.99-28.83,10.01-58.31,35.07-82.77,22.64-22.12,65.99-38.47,105.72-35.16,4.1.34,8.16.89,12.16,1.67,36.41,7.04,55.79,28.12,76.95,46.52,22.03,19.16,50.39,37.87,84.2,52.27,18.56,7.91,38.57,14.45,60.06,18.79,54.59,10.99,112.61,6.29,159.94-7.05,47.4-13.28,85.39-34.51,120.82-58.33,5.45-3.66,11.07-7.44,16.82-11.31,40.17-26.97,87.2-57.04,148.77-58.72,21.44-.58,42.18,2.44,61.06,6.9,31.97,7.6,58.49,18.86,83.26,31.33,38.81,19.43,73.99,42.4,122.16,61.32,33.23,13.05,62.3,32.67,101.08,37.85,23.21,3.1,43.98.67,63.73-2.15,19.5-2.79,41.23-7.27,64.88-7.73,8.96-.18,17.63.18,26.14.32,35.93.56,72.73-.48,98.39-10.97,40.25-16.45,46.35-51.48,87.92-68.16,39.44-15.8,95.22-11.03,141.42,1.69,4.42,1.22,8.75,2.5,12.97,3.86,48.32,15.47,89.09,37.57,138.05,50.83,48.89,13.27,113.11,15.59,153.16-7.31,3.49-5.24,5.44-11.95,7.28-18.62"/>
      <path class="cls-3" d="m-26.57,191.9c4.37-28.42,11.12-57.31,36.19-81.3,22.63-21.69,65.12-37.8,104.2-35.15,4.03.27,8.03.75,11.97,1.43,35.87,6.24,55.67,25.89,77.2,43.14,22.44,17.98,50.97,35.72,84.58,49.71,18.45,7.68,38.18,14.15,59.26,18.58,53.52,11.21,109.92,7.88,156.23-3.7,46.38-11.51,83.86-30.63,119.41-52.65,5.47-3.39,11.13-6.89,16.92-10.49,40.37-25.14,87.5-53.95,148.05-56.21,21.14-.79,41.57,1.78,60.19,5.7,31.52,6.68,57.75,16.73,82.25,27.92,38.42,17.4,73.58,38.19,121.79,56.25,34.84,13.05,63.41,35.12,103.74,39.96,24.14,2.9,45.07-.8,64.66-4.68,19.37-3.83,41.47-9.45,66.01-9.73,9.29-.11,18.2.51,26.94.92,36.85,1.66,74.76,2.5,101.64-7.02,40.19-14.24,46.88-47.73,87.87-63.08,38.9-14.55,93.4-9.64,138.88,2.62,4.35,1.17,8.62,2.41,12.79,3.71,47.66,14.85,88.18,35.76,136.43,48.1,48.16,12.35,110.83,14.13,150.41-8.15,6.55-6.1,11.16-14.03,15.65-21.9"/>
      <path class="cls-3" d="m-27.03,195.24c4.75-28,12.22-56.31,37.31-79.84,22.62-21.27,64.25-37.13,102.69-35.14,3.96.21,7.9.6,11.78,1.2,35.33,5.44,55.54,23.66,77.46,39.76,22.86,16.8,51.55,33.57,84.97,47.15,18.33,7.46,37.8,13.85,58.47,18.37,52.45,11.43,107.24,9.47,152.51-.35,45.37-9.74,82.32-26.76,118.01-46.98,5.49-3.11,11.19-6.34,17.01-9.68,40.57-23.3,87.79-50.87,147.33-53.71,20.85-1,40.95,1.13,59.31,4.5,31.06,5.75,56.97,14.64,81.24,24.5,37.97,15.43,73.22,33.96,121.41,51.18,36.47,13.03,64.52,37.57,106.4,42.08,25.07,2.7,46.16-2.28,65.6-7.21,19.24-4.87,41.71-11.64,67.14-11.73,9.61-.04,18.78.84,27.74,1.51,37.78,2.77,74.67,2.3,104.89-3.08,35.88-16.24,47.41-43.97,87.83-58,38.37-13.29,91.57-8.25,136.34,3.56,4.29,1.13,8.49,2.32,12.6,3.56,47,14.23,87.27,33.95,134.81,45.36,47.42,11.43,108.55,12.66,147.67-9,9.6-6.95,16.89-16.1,24.02-25.18"/>
      <path class="cls-3" d="m-27.48,198.58c5.13-27.59,13.33-55.3,38.42-78.38,22.61-20.84,63.38-36.47,101.18-35.14,3.9.14,7.77.45,11.59.96,34.8,4.63,55.42,21.42,77.72,36.39,23.28,15.63,52.14,31.42,85.35,44.59,18.22,7.23,37.41,13.55,57.67,18.17,51.37,11.66,104.55,11.06,148.79,3,44.35-7.98,80.79-22.89,116.6-41.3,5.52-2.84,11.25-5.79,17.1-8.87,40.77-21.47,88.09-47.79,146.61-51.21,20.55-1.2,40.34.47,58.44,3.29,30.61,4.83,56.22,12.52,80.23,21.08,37.57,13.41,72.9,29.69,121.04,46.11,38.12,13,65.62,40.02,109.06,44.2,26,2.5,47.26-3.76,66.54-9.74,19.11-5.92,41.95-13.82,68.27-13.73,9.94.03,19.35,1.17,28.53,2.1,38.71,3.87,76.57,4.69,108.14.87,35.46-14.68,47.94-40.22,87.79-52.93,37.83-12.03,89.74-6.86,133.8,4.49,4.22,1.09,8.36,2.23,12.41,3.42,46.35,13.61,86.36,32.14,133.19,42.63,46.69,10.51,106.26,11.2,144.92-9.85,12.66-7.8,22.62-18.17,32.39-28.46"/>
      <path class="cls-3" d="m-27.94,201.92c5.51-27.18,14.44-54.3,39.54-76.92,22.6-20.41,62.51-35.8,99.66-35.13,3.83.07,7.64.31,11.4.73,34.26,3.83,55.3,19.19,77.97,33.01,23.7,14.45,52.72,29.27,85.74,42.03,18.11,7.01,37.02,13.25,56.88,17.96,50.3,11.88,101.85,12.6,145.08,6.34,43.31-6.27,79.27-19.02,115.2-35.63,5.54-2.56,11.3-5.23,17.2-8.06,40.96-19.63,88.39-44.71,145.89-48.71,20.25-1.41,39.73-.18,57.57,2.09,30.16,3.9,55.48,10.39,79.22,17.67,37.18,11.39,72.61,25.39,120.66,41.04,39.79,12.96,66.73,42.47,111.73,46.31,26.94,2.3,48.35-5.25,67.48-12.26,18.98-6.96,42.18-16.01,69.4-15.73,10.27.1,19.93,1.5,29.33,2.69,39.63,4.97,78.47,7.08,111.38,4.81,35.03-13.13,48.47-36.46,87.75-47.85,37.3-10.78,87.92-5.47,131.26,5.42,4.15,1.04,8.23,2.13,12.23,3.27,45.69,12.99,85.46,30.33,131.57,39.9,45.96,9.59,103.98,9.74,142.17-10.7,15.72-8.66,28.34-20.24,40.76-31.74"/>
      <path class="cls-3" d="m-28.39,205.26c5.89-26.76,15.54-53.3,40.66-75.46,22.59-19.98,61.64-35.13,98.15-35.13,3.76,0,7.51.16,11.21.5,33.72,3.03,55.19,16.95,78.23,29.63,24.13,13.28,53.3,27.12,86.12,39.47,17.99,6.78,36.63,12.95,56.08,17.76,49.23,12.11,99.17,14.18,141.36,9.69,42.3-4.5,77.74-15.15,113.79-29.95,5.57-2.29,11.36-4.68,17.29-7.25,41.14-17.79,88.69-41.63,145.17-46.21,19.95-1.62,39.12-.84,56.7.88,29.7,2.98,54.74,8.27,78.21,14.25,36.79,9.37,72.35,21.07,120.28,35.97,41.49,12.9,67.84,44.92,114.39,48.43,27.87,2.1,49.44-6.73,68.41-14.79,18.85-8.01,42.42-18.2,70.53-17.72,10.6.17,20.5,1.83,30.13,3.28,40.56,6.08,80.37,9.47,114.63,8.76,34.61-11.57,49-32.71,87.71-42.77,36.76-9.52,86.09-4.08,128.72,6.35,4.09,1,8.1,2.04,12.04,3.12,45.04,12.37,84.55,28.52,129.95,37.16,45.23,8.67,101.7,8.28,139.43-11.54,18.77-9.51,34.07-22.32,49.13-35.02"/>
      <path class="cls-3" d="m-28.85,208.6c6.27-26.35,16.65-52.3,41.77-74,22.58-19.55,60.77-34.46,96.63-35.12,3.7-.07,7.38.02,11.02.26,33.19,2.22,55.07,14.72,78.49,26.26,24.56,12.1,53.88,24.97,86.51,36.91,17.88,6.55,36.25,12.65,55.29,17.55,48.16,12.33,96.49,15.77,137.64,13.04,41.29-2.74,76.23-11.27,112.39-24.28,5.59-2.01,11.42-4.13,17.38-6.43,41.32-15.96,89-38.56,144.45-43.7,19.66-1.82,38.5-1.49,55.82-.32,29.25,2.05,54,6.15,77.2,10.83,36.41,7.35,72.11,16.72,119.91,30.9,43.2,12.82,68.95,47.37,117.05,50.55,28.8,1.9,50.53-8.21,69.35-17.32,18.72-9.06,42.66-20.38,71.66-19.72,10.92.24,21.08,2.16,30.93,3.88,41.48,7.18,82.27,11.86,117.88,12.7,34.18-10.02,49.53-28.95,87.66-37.69,36.22-8.26,84.26-2.69,126.17,7.29,4.02.96,7.97,1.95,11.85,2.98,44.38,11.75,83.64,26.71,128.33,34.43,44.5,7.75,99.42,6.82,136.68-12.39,21.83-10.36,39.8-24.39,57.5-38.3"/>
      <path class="cls-3" d="m-29.3,211.94c6.64-25.94,17.75-51.3,42.89-72.53,22.57-19.12,59.9-33.8,95.12-35.11,3.63-.13,7.25-.13,10.83.03,32.65,1.42,54.96,12.48,78.74,22.88,24.99,10.92,54.46,22.82,86.9,34.35,17.76,6.33,35.86,12.35,54.5,17.35,47.09,12.56,93.81,17.35,133.92,16.38,40.28-.98,74.71-7.4,110.98-18.6,5.62-1.74,11.47-3.58,17.48-5.62,41.5-14.13,89.3-35.49,143.73-41.2,19.36-2.03,37.89-2.17,54.95-1.52,28.8,1.09,53.26,4.02,76.19,7.42,36.03,5.33,71.89,12.34,119.53,25.83,44.92,12.72,70.06,49.82,119.71,52.66,29.73,1.7,51.62-9.69,70.29-19.85,18.58-10.1,42.9-22.57,72.79-21.72,11.25.31,21.65,2.49,31.72,4.47,42.41,8.29,84.18,14.24,121.13,16.65,33.75-8.47,50.07-25.2,87.62-32.62,35.69-7.01,82.44-1.3,123.63,8.22,3.95.91,7.84,1.86,11.67,2.83,43.73,11.14,82.74,24.9,126.71,31.7,43.76,6.83,97.14,5.36,133.93-13.24,24.88-11.22,45.52-26.46,65.87-41.58"/>
      <path class="cls-3" d="m-29.76,215.28c7.02-25.53,18.86-50.3,44.01-71.07,22.56-18.69,59.03-33.13,93.61-35.11,3.56-.2,7.12-.27,10.64-.21,32.11.62,54.86,10.25,79,19.5,25.43,9.74,55.04,20.67,87.28,31.79,17.65,6.1,35.47,12.05,53.7,17.14,46.02,12.78,91.14,18.94,130.21,19.73,39.27.79,73.21-3.52,109.58-12.93,5.65-1.46,11.53-3.03,17.57-4.81,41.67-12.3,89.6-32.42,143.01-38.7,19.06-2.24,37.28-2.82,54.08-2.73,28.34.16,52.53,1.9,75.19,4,35.65,3.31,71.69,7.95,119.15,20.76,46.67,12.6,71.17,52.27,122.37,54.78,30.66,1.5,52.71-11.18,71.23-22.37,18.45-11.15,43.13-24.75,73.92-23.72,11.58.38,22.22,2.82,32.52,5.06,43.34,9.39,86.08,16.63,124.37,20.59,33.33-6.91,50.6-21.45,87.58-27.54,35.15-5.75,80.61.09,121.09,9.15,3.88.87,7.71,1.76,11.48,2.68,43.07,10.52,81.83,23.09,125.09,28.96,43.03,5.91,94.86,3.89,131.19-14.09,27.94-12.07,51.25-28.54,74.24-44.86"/>
      <path class="cls-3" d="m-30.21,218.62c7.4-25.11,19.97-49.3,45.12-69.61,22.55-18.26,58.16-32.46,92.09-35.1,3.5-.27,6.99-.42,10.45-.44,31.58-.19,54.75,8.01,79.26,16.12,25.86,8.56,55.62,18.52,87.67,29.23,17.54,5.87,35.08,11.75,52.91,16.94,44.95,13.01,88.46,20.53,126.49,23.08,38.26,2.56,71.7.36,108.17-7.25,5.68-1.18,11.58-2.48,17.66-4,41.84-10.47,89.9-29.35,142.3-36.2,18.76-2.45,36.66-3.48,53.21-3.93,27.89-.76,51.8-.23,74.18.58,35.28,1.28,71.5,3.53,118.78,15.69,48.42,12.45,72.28,54.72,125.04,56.9,31.59,1.3,53.79-12.66,72.16-24.9,18.31-12.2,43.37-26.94,75.05-25.72,11.91.45,22.8,3.15,33.32,5.65,44.26,10.5,87.98,19.02,127.62,24.54,32.9-5.36,51.13-17.69,87.54-22.46,34.62-4.49,78.79,1.48,118.55,10.09,3.82.82,7.59,1.67,11.29,2.54,42.42,9.9,80.92,21.28,123.47,26.23,42.3,4.99,92.58,2.43,128.44-14.93,31-12.92,56.97-30.61,82.61-48.14"/>
      <path class="cls-3" d="m-30.67,221.96c7.78-24.7,21.07-48.3,46.24-68.15,22.54-17.83,57.29-31.8,90.58-35.09,3.43-.34,6.86-.57,10.27-.67,31.04-.99,54.65,5.77,79.52,12.75,26.31,7.38,56.2,16.36,88.05,26.67,17.42,5.65,34.7,11.45,52.11,16.73,43.88,13.23,85.79,22.13,122.77,26.42,37.25,4.33,70.2,4.24,106.77-1.57,5.71-.91,11.64-1.93,17.76-3.18,42-8.65,90.2-26.28,141.58-33.69,18.47-2.66,36.05-4.13,52.33-5.13,27.43-1.69,51.06-2.36,73.17-2.83,34.9-.75,71.31-.9,118.4,10.62,50.19,12.28,73.39,57.17,127.7,59.01,32.52,1.1,54.84-14.17,73.1-27.43,18.13-13.27,43.61-29.12,76.19-27.72,12.24.52,23.37,3.48,34.12,6.24,45.19,11.6,89.88,21.41,130.87,28.48,32.47-3.81,51.66-13.94,87.49-17.39,34.08-3.24,76.96,2.87,116.01,11.02,3.75.78,7.46,1.58,11.11,2.39,41.76,9.28,80.01,19.47,121.85,23.5,41.57,4.07,90.3.97,125.69-15.78,34.05-13.78,62.7-32.68,90.98-51.42"/>
      <path class="cls-3" d="m-31.12,225.3c8.16-24.29,22.18-47.3,47.36-66.69,22.53-17.4,56.42-31.13,89.07-35.09,3.36-.41,6.73-.71,10.08-.91,30.5-1.79,54.55,3.53,79.77,9.37,26.75,6.2,56.78,14.21,88.44,24.11,17.31,5.42,34.31,11.15,51.32,16.52,42.81,13.46,83.11,23.72,119.06,29.77,36.24,6.1,68.7,8.13,105.36,4.1,5.74-.63,11.69-1.38,17.85-2.37,42.16-6.83,90.49-23.22,140.86-31.19,18.17-2.88,35.43-4.79,51.46-6.34,26.98-2.61,50.33-4.49,72.16-6.25,34.53-2.78,71.14-5.35,118.02,5.55,51.97,12.09,74.5,59.62,130.36,61.13,33.45.9,55.92-15.65,74.04-29.96,18-14.31,43.85-31.31,77.32-29.72,12.56.59,23.95,3.81,34.91,6.84,46.11,12.7,91.78,23.8,134.12,32.43,32.05-2.25,52.19-10.18,87.45-12.31,33.55-1.98,75.13,4.26,113.47,11.95,3.68.74,7.33,1.49,10.92,2.24,41.1,8.66,79.11,17.66,120.23,20.76,40.83,3.15,88.02-.49,122.94-16.63,37.11-14.63,68.43-34.76,99.35-54.7"/>
      <path class="cls-3" d="m-31.58,228.64c8.54-23.87,23.28-46.3,48.47-65.22,22.52-16.97,55.55-30.46,87.55-35.08,3.3-.47,6.6-.86,9.89-1.14,29.97-2.6,54.45,1.28,80.03,5.99,27.19,5.01,57.36,12.06,88.82,21.55,17.19,5.2,33.92,10.85,50.52,16.32,41.74,13.68,80.44,25.32,115.34,33.12,35.23,7.87,67.2,12.02,103.96,9.78,5.76-.35,11.75-.83,17.94-1.56,42.32-5.02,90.79-20.16,140.14-28.69,17.87-3.09,34.82-5.44,50.59-7.54,26.52-3.53,49.59-6.63,71.15-9.67,34.15-4.82,70.97-9.82,117.65.48,53.77,11.87,75.61,62.07,133.02,63.24,34.38.7,57.01-17.13,74.98-32.48,17.86-15.36,44.08-33.5,78.45-31.72,12.89.66,24.52,4.14,35.71,7.43,47.04,13.81,93.68,26.18,137.37,36.37,31.62-.7,52.72-6.43,87.41-7.23,33.01-.72,73.31,5.65,110.93,12.88,3.61.69,7.2,1.39,10.73,2.1,40.45,8.04,78.2,15.85,118.61,18.03,40.1,2.23,85.74-1.95,120.2-17.48,40.17-15.48,74.15-36.83,107.72-57.98"/>
      <path class="cls-3" d="m-32.03,231.98c8.92-23.46,24.39-45.29,49.59-63.76,22.51-16.54,54.68-29.79,86.04-35.07,3.23-.54,6.46-1,9.7-1.38,29.43-3.4,54.35-.97,80.29,2.62,27.64,3.82,57.94,9.91,89.21,18.99,17.08,4.97,33.53,10.55,49.73,16.11,40.67,13.91,77.76,26.92,111.62,36.46,34.22,9.64,65.7,15.92,102.55,15.45,5.79-.07,11.8-.28,18.04-.75,42.48-3.21,91.09-17.1,139.42-26.19,17.57-3.3,34.21-6.07,49.72-8.74,26.08-4.43,48.86-8.76,70.14-13.08,33.77-6.86,70.8-14.31,117.27-4.58,55.57,11.63,76.72,64.52,135.68,65.36,35.31.51,58.1-18.61,75.91-35.01,17.73-16.4,44.32-35.68,79.58-33.72,13.22.73,25.1,4.46,36.51,8.02,47.97,14.91,95.59,28.57,140.61,40.32,31.19.86,53.25-2.68,87.37-2.16,32.48.54,71.48,7.03,108.39,13.82,3.55.65,7.07,1.3,10.55,1.95,39.79,7.42,77.29,14.04,116.99,15.3,39.37,1.31,83.46-3.41,117.45-18.32,43.22-16.34,79.88-38.9,116.09-61.27"/>
      <path class="cls-3" d="m-32.49,235.32c9.29-23.05,25.5-44.29,50.71-62.3,22.5-16.11,53.81-29.13,84.53-35.07,3.16-.61,6.33-1.15,9.51-1.61,28.89-4.21,54.25-3.22,80.54-.76,28.08,2.62,58.52,7.76,89.59,16.43,16.97,4.74,33.15,10.25,48.93,15.91,39.6,14.13,75.08,28.52,107.91,39.81,33.21,11.42,64.2,19.82,101.15,21.13,5.82.21,11.85.27,18.13.06,42.64-1.4,91.38-14.05,138.7-23.68,17.27-3.52,33.6-6.73,48.84-9.95,25.62-5.35,48.12-10.9,69.13-16.5,33.39-8.9,70.63-18.81,116.9-9.65,57.38,11.36,77.83,66.97,138.35,67.48,36.24.31,59.18-20.1,76.85-37.54,17.59-17.45,44.56-37.87,80.71-35.72,13.55.8,25.67,4.79,37.31,8.61,48.89,16.02,94.74,35.52,143.86,44.26,29.81,5.3,53.78,1.08,87.32,2.92,31.94,1.79,69.65,8.42,105.85,14.75,3.48.61,6.94,1.21,10.36,1.8,39.14,6.8,76.39,12.23,115.37,12.56,38.64.39,81.17-4.88,114.7-19.17,46.28-17.19,85.61-40.97,124.46-64.55"/>
      <path class="cls-3" d="m-32.94,238.66c9.67-22.64,26.6-43.29,51.82-60.84,22.49-15.68,52.94-28.46,83.01-35.06,3.1-.68,6.2-1.3,9.32-1.84,28.36-5.01,54.15-5.47,80.8-4.14,28.52,1.43,59.1,5.61,89.98,13.87,16.85,4.52,32.76,9.95,48.14,15.7,38.53,14.35,72.39,30.12,104.19,43.16,32.19,13.2,62.69,23.72,99.74,26.8,5.85.49,11.91.82,18.22.88,42.81.4,91.67-10.99,137.98-21.18,16.97-3.73,32.99-7.38,47.97-11.15,25.17-6.28,47.37-13.04,68.12-19.92,33-10.94,70.47-23.32,116.52-14.72,59.19,11.05,78.94,69.42,141.01,69.59,37.17.11,60.27-21.58,77.79-40.07,17.45-18.49,44.8-40.05,81.84-37.71,13.87.87,26.24,5.12,38.11,9.21,49.82,17.12,96.69,37.27,147.11,48.21,29.26,6.35,54.31,4.83,87.28,8,31.41,3.05,67.83,9.81,103.31,15.68,3.41.56,6.81,1.12,10.17,1.66,38.48,6.18,75.48,10.42,113.75,9.83,37.91-.53,78.89-6.34,111.96-20.02,49.34-18.04,91.33-43.05,132.83-67.83"/>
      <path class="cls-3" d="m-33.4,242c10.05-22.22,27.71-42.29,52.94-59.38,22.48-15.25,52.07-27.79,81.5-35.06,3.03-.75,6.07-1.44,9.13-2.08,27.82-5.81,54.05-7.73,81.06-7.52,28.96.23,59.68,3.46,90.36,11.31,16.74,4.29,32.37,9.65,47.34,15.5,37.46,14.58,69.66,31.75,100.47,46.5,31.12,15.01,61.17,27.63,98.34,32.48,5.88.77,11.96,1.36,18.32,1.69,42.98,2.19,91.96-7.94,137.26-18.68,16.67-3.95,32.37-8.04,47.1-12.36,24.72-7.2,46.63-15.18,67.11-23.33,32.6-12.98,70.29-27.85,116.14-19.79,61.01,10.72,80.04,71.86,143.67,71.71,38.1-.09,61.36-23.06,78.73-42.59,17.32-19.54,45.03-42.24,82.97-39.71,14.2.94,26.82,5.45,38.9,9.8,50.74,18.23,98.82,38.94,150.36,52.15,28.84,7.39,54.84,8.59,87.24,13.08,30.87,4.31,66,11.2,100.77,16.62,3.35.52,6.68,1.02,9.99,1.51,37.83,5.57,74.57,8.61,112.13,7.1,37.17-1.45,76.61-7.8,109.21-20.87,52.39-18.9,97.06-45.12,141.2-71.11"/>
      <path class="cls-3" d="m-33.85,245.34c10.43-21.81,28.82-41.29,54.06-57.92,22.47-14.83,51.2-27.13,79.98-35.05,2.96-.81,5.94-1.59,8.94-2.31,27.28-6.62,53.94-9.99,81.31-10.89,29.39-.98,60.27,1.31,90.75,8.75,16.62,4.06,31.98,9.35,46.55,15.29,36.39,14.8,66.98,33.34,96.75,49.85,30.11,16.78,59.65,31.54,96.93,38.15,5.9,1.05,12.02,1.91,18.41,2.5,43.16,3.99,92.25-4.9,136.54-16.18,16.37-4.17,31.76-8.69,46.23-13.56,24.27-8.13,45.85-17.34,66.1-26.75,32.16-15.06,70.11-32.39,115.77-24.86,62.83,10.36,81.15,74.31,146.33,73.83,39.03-.29,62.44-24.54,79.66-45.12,17.18-20.58,45.27-44.42,84.1-41.71,14.53,1.01,27.39,5.78,39.7,10.39,51.67,19.33,101.12,40.56,153.6,56.1,28.53,8.44,55.37,12.34,87.2,18.15,30.34,5.56,64.17,12.59,98.23,17.55,3.28.48,6.55.93,9.8,1.36,37.17,4.95,73.66,6.8,110.51,4.36,36.44-2.37,74.33-9.26,106.46-21.71,55.45-19.75,102.78-47.19,149.57-74.39"/>
      <path class="cls-3" d="m-34.31,248.68c10.81-21.4,29.92-40.29,55.17-56.45,22.46-14.4,50.33-26.46,78.47-35.04,2.89-.88,5.81-1.73,8.75-2.55,26.75-7.42,53.83-12.24,81.57-14.27,29.82-2.18,60.85-.84,91.13,6.2,16.51,3.84,31.6,9.05,45.75,15.09,35.32,15.03,64.29,34.93,93.04,53.2,29.09,18.54,58.1,35.49,95.53,43.83,5.92,1.34,12.08,2.46,18.5,3.31,43.34,5.78,92.49-1.9,135.82-13.67,16.05-4.41,31.15-9.35,45.35-14.76,23.81-9.05,45.11-19.47,65.09-30.17,31.77-17.09,69.93-36.94,115.39-29.93,64.66,9.97,82.26,76.76,148.99,75.94,39.96-.49,63.53-26.02,80.6-47.65,17.05-21.63,45.51-46.61,85.23-43.71,14.86,1.08,27.97,6.11,40.5,10.98,52.6,20.44,103.57,42.14,156.85,60.04,28.33,9.52,55.9,16.1,87.16,23.23,29.8,6.82,62.35,13.98,95.68,18.48,3.21.43,6.42.84,9.62,1.22,36.52,4.33,72.76,4.99,108.89,1.63,35.71-3.29,72.05-10.72,103.72-22.56,58.5-20.6,108.51-49.27,157.94-77.67"/>
      <path class="cls-3" d="m-34.76,252.02c11.19-20.98,31.03-39.29,56.29-54.99,22.45-13.97,49.46-25.79,76.96-35.04,2.83-.95,5.68-1.88,8.56-2.78,26.21-8.22,53.71-14.52,81.83-17.65,30.25-3.4,61.43-2.99,91.52,3.64,16.4,3.61,31.21,8.75,44.96,14.88,34.24,15.25,61.61,36.53,89.32,56.54,28.07,20.31,56.58,39.38,94.12,49.51,5.95,1.61,12.14,3,18.59,4.12,43.55,7.54,92.79,1.17,135.1-11.17,15.75-4.62,30.53-10,44.48-15.97,23.36-9.98,44.37-21.6,64.08-33.58,31.38-19.12,69.74-41.5,115.01-35,66.49,9.55,83.37,79.21,151.65,78.06,40.89-.69,64.62-27.5,81.54-50.18,16.91-22.67,45.75-48.79,86.36-45.71,15.18,1.15,28.54,6.44,41.3,11.57,53.52,21.54,106.17,43.71,160.1,63.99,28.22,10.61,56.43,19.85,87.11,28.31,29.26,8.08,60.52,15.37,93.14,19.41,3.14.39,6.29.75,9.43,1.07,35.86,3.71,71.85,3.18,107.27-1.1,34.98-4.21,69.77-12.18,100.97-23.41,61.56-21.46,114.24-51.34,166.31-80.95"/>
      <path class="cls-3" d="m-35.22,255.36c21.84-38.84,75.76-67.5,132.85-88.56,55.01-20.3,121.64-35.59,182.36-22.96,104.36,21.7,137.13,112.42,241.17,134.68,43.73,9.36,93.08,4.24,134.38-8.67,41.3-12.91,75.61-32.96,106.68-54.17,30.99-21.15,69.54-46.07,114.64-40.07,68.31,9.09,84.48,81.66,154.32,80.18,41.82-.89,65.7-28.99,82.48-52.7,16.77-23.72,45.99-50.98,87.5-47.71,15.51,1.22,29.12,6.77,42.09,12.17,54.45,22.64,108.9,45.29,163.35,67.93,55.12,22.93,112.32,46.39,177.67,53.73,72.8,8.18,148.5-4.86,213.12-27.17,64.62-22.31,119.96-53.41,174.68-84.23"/>
    </g>
  </g>
</svg>