<svg width="763" height="763" viewBox="0 0 763 763" fill="none" xmlns="http://www.w3.org/2000/svg">
<path fill-rule="evenodd" clip-rule="evenodd" d="M381.5 604C504.383 604 604 504.383 604 381.5C604 258.617 504.383 159 381.5 159C258.617 159 159 258.617 159 381.5C159 504.383 258.617 604 381.5 604ZM381.5 638C523.161 638 638 523.161 638 381.5C638 239.839 523.161 125 381.5 125C239.839 125 125 239.839 125 381.5C125 523.161 239.839 638 381.5 638Z" fill="white"/>
<path fill-rule="evenodd" clip-rule="evenodd" d="M503.929 338.595L393.743 448.922C386.981 455.693 376.019 455.693 369.257 448.922L259.071 338.595C252.31 331.825 252.31 320.848 259.071 314.078C265.833 307.307 276.795 307.307 283.557 314.078L364.186 394.81L380.168 410.881H382.832L398.814 394.81L479.443 314.078C486.205 307.307 497.167 307.307 503.929 314.078C510.69 320.848 510.69 331.825 503.929 338.595Z" fill="#FFFDFD"/>
</svg>
