<svg width="4630" height="572" viewBox="0 0 4630 572" fill="none" xmlns="http://www.w3.org/2000/svg">
<g filter="url(#filter0_d_206_13)">
<path d="M514.556 216.305C511.195 213.489 506.696 212 501.554 212C494.669 212 486.582 214.692 478.787 219.583L388.638 276.091C372.73 286.061 361.919 302.449 362.927 315.059C363.466 321.771 367.107 326.876 373.172 329.432L430.654 353.709C433.222 354.795 436.128 355.341 439.288 355.341C443.695 355.341 448.473 354.288 453.473 352.207C467.502 346.386 480.367 333.971 485.49 321.315L518.164 240.53C522.169 230.613 520.823 221.56 514.556 216.299V216.305ZM501.534 226.223C502.75 226.223 504.408 226.399 505.403 227.231C506.657 228.284 506.482 231.413 504.96 235.191L472.287 315.97C468.626 325.022 458.42 334.725 448.025 339.044C444.839 340.364 441.738 341.092 439.307 341.092C438.085 341.092 437.012 340.91 436.206 340.572L378.724 316.301C377.769 315.898 377.262 315.417 377.145 313.921C376.722 308.627 382.488 296.778 396.212 288.174L486.368 231.666C491.881 228.206 497.413 226.223 501.541 226.223H501.534Z" fill="url(#paint0_linear_206_13)"/>
</g>
<g filter="url(#filter1_d_206_13)">
<path d="M516.591 203.115C513.327 201.047 509.42 200 504.987 200C495.833 200 484.873 204.643 474.9 212.734L377.034 292.205C360.119 305.947 350.647 325.06 354.001 338.685C355.808 346.008 360.983 350.879 368.583 352.413L443.565 367.521C445.151 367.839 446.829 368.002 448.551 368.002C469.153 368.002 495.749 344.857 501.248 322.134L524.132 227.561C526.758 216.707 524.008 207.791 516.597 203.115H516.591ZM471.298 342.626C463.471 349.487 454.753 353.747 448.551 353.747C447.778 353.747 447.05 353.675 446.374 353.545L371.398 338.444C368.83 337.924 368.173 336.617 367.842 335.277C366.412 329.489 371.203 315.312 386.018 303.28L483.878 223.809C494.487 215.192 502.087 214.262 504.863 214.262C506.566 214.262 508.062 214.594 508.972 215.166C511.702 216.889 510.785 222.066 510.265 224.212L487.382 318.784C485.484 326.641 479.613 335.329 471.285 342.632L471.298 342.626Z" fill="url(#paint1_linear_206_13)"/>
</g>
<g filter="url(#filter2_d_206_13)">
<path d="M514.816 189.016C511.832 187.676 508.491 187 504.889 187C493.194 187 479.08 194.388 467.125 206.757L364.676 312.802C347.799 330.27 340.102 352.355 345.959 366.513C349.275 374.519 356.244 379.013 365.592 379.175L459.928 380.814C460.13 380.814 460.338 380.821 460.539 380.821C472.391 380.821 486.589 373.394 498.518 360.959C510.265 348.713 517.859 333.677 518.827 320.755L526.927 213.079C527.792 201.639 523.378 192.873 514.816 189.023V189.016ZM512.716 211.999L504.616 319.682C503.914 329.028 497.621 340.968 488.188 350.84C478.924 360.536 468.295 366.565 460.448 366.565L365.833 364.926C361.217 364.848 359.794 362.683 359.124 361.063C354.729 350.437 365.716 332.24 374.921 322.713L477.364 216.668C486.394 207.323 497.231 201.281 504.961 201.281C506.514 201.281 507.867 201.535 508.978 202.036C512.56 203.642 512.983 208.344 512.71 212.006L512.716 211.999Z" fill="url(#paint2_linear_206_13)"/>
</g>
<g filter="url(#filter3_d_206_13)">
<path d="M537.862 308.899L525.244 189.841C523.995 178.031 517.624 169.687 507.756 166.956C505.461 166.325 503.01 166 500.462 166C485.464 166 467.827 177.043 454.428 194.81L351.947 330.737C335.753 352.218 330.695 376.482 339.367 391.121C343.71 398.444 351.102 402.476 360.177 402.476C361.744 402.476 363.375 402.353 365.027 402.112L480.127 385.236C509.81 380.885 541.1 339.497 537.856 308.892L537.862 308.899ZM351.628 383.857C346.05 374.44 350.972 355.717 363.323 339.328L465.805 203.401C476.246 189.549 490.138 180.242 500.364 180.242C501.651 180.242 502.861 180.399 503.953 180.704C505.481 181.127 510.116 182.415 511.065 191.35L523.683 310.408C524.801 320.956 519.536 335.426 509.94 348.16C500.377 360.855 488.162 369.66 478.059 371.136L362.953 388.013C361.958 388.156 361.003 388.234 360.112 388.234C356.036 388.234 353.422 386.881 351.628 383.857Z" fill="url(#paint3_linear_206_13)"/>
</g>
<g filter="url(#filter4_d_206_13)">
<path d="M557.703 289.284L517.514 161.928C513.743 149.968 505.032 142.411 493.61 141.182C492.466 141.059 491.302 141 490.138 141C471.357 141 449.481 157.2 435.712 181.295L339.426 349.83C332.567 361.829 328.439 374.316 327.49 385.937C326.482 398.183 329.076 408.576 334.979 415.996C340.284 422.662 347.773 426.187 356.641 426.187C358.37 426.187 360.145 426.05 361.952 425.777L362.069 426.187L504.414 383.238C521.265 378.153 538.486 362.213 549.349 341.63C559.244 322.893 562.286 303.812 557.703 289.277V289.284ZM490.099 155.255C490.775 155.255 491.445 155.288 492.089 155.359C497.946 155.99 501.814 159.541 503.92 166.22L544.11 293.583C547.51 304.339 544.753 319.817 536.75 334.977C527.597 352.302 513.633 365.569 500.299 369.588L363.824 410.767C361.295 411.528 358.896 411.918 356.693 411.918C352.22 411.918 348.664 410.305 346.128 407.119C338.366 397.364 340.752 376.247 351.804 356.906L448.09 188.371C459.233 168.874 476.506 155.255 490.099 155.255Z" fill="url(#paint4_linear_206_13)"/>
</g>
<g filter="url(#filter5_d_206_13)">
<path d="M577.466 263.29L502.009 132.332C495.567 121.152 485.197 115 472.807 115C471.929 115 471.038 115.033 470.174 115.091C458.511 115.904 446.491 121.698 435.406 131.857C424.654 141.716 415.819 154.723 409.858 169.479L327.913 372.352C316.393 400.876 318.675 428.626 333.737 443.038C340.004 449.034 347.637 452.071 356.419 452.071C360.879 452.071 365.514 451.258 370.26 449.645L370.397 449.886L532.934 375.63C553.302 366.323 571.167 344.258 579.553 318.049C586.242 297.153 585.482 277.188 577.466 263.284V263.29ZM489.657 139.453L565.114 270.412C571.128 280.849 571.44 296.627 565.972 313.711C558.769 336.219 543.843 354.975 527.012 362.662L369.61 434.577C364.923 436.716 360.496 437.802 356.458 437.802C351.362 437.802 347.156 436.144 343.593 432.736C333.107 422.701 332.093 400.063 341.129 377.691L423.074 174.818C433.229 149.683 453.453 130.543 471.155 129.314C471.727 129.275 472.3 129.255 472.852 129.255C480.114 129.255 485.763 132.683 489.664 139.453H489.657Z" fill="url(#paint5_linear_206_13)"/>
</g>
<g filter="url(#filter6_d_206_13)">
<path d="M596.007 230.156L476.902 102.234C468.841 93.5784 458.478 89 446.952 89C443.052 89 439.034 89.5333 435.003 90.5933C408.421 97.5715 384.068 126.388 375.792 160.674L318.454 398.171C310.932 429.322 318.168 458.191 336.877 471.731C343.866 476.784 351.83 479.346 360.541 479.346C368.05 479.346 375.955 477.33 383.678 473.487L383.821 473.741L565.641 360.829C588.628 346.554 606.116 317.562 610.199 286.957C613.28 263.85 608.105 243.15 596.013 230.163L596.007 230.156ZM360.548 465.078C354.879 465.078 349.723 463.426 345.225 460.174C331.222 450.042 326.144 427.014 332.301 401.507L389.64 164.017C396.739 134.608 416.879 110.084 438.611 104.381C441.439 103.639 444.228 103.262 446.907 103.262C454.415 103.262 461.176 106.267 466.468 111.944L585.573 239.859C594.752 249.725 598.575 266.191 596.059 285.051C592.522 311.598 577.629 336.584 558.113 348.7L381.669 458.275C374.512 462.717 367.211 465.065 360.541 465.065L360.548 465.078Z" fill="url(#paint6_linear_206_13)"/>
</g>
<g filter="url(#filter7_d_206_13)">
<path d="M640.649 246.649C639.576 220.941 629.084 199.526 611.876 187.891L440.308 71.9292C431.545 66.0046 421.858 63 411.515 63C402.914 63 394.203 65.1071 385.628 69.2628C356.653 83.3036 335.311 117.824 332.522 155.166L312.336 425.551C309.827 459.226 322.692 487.73 345.927 499.937C353.416 503.871 361.458 505.868 369.824 505.868C383.581 505.868 397.616 500.418 410.417 490.104L602.163 335.681C626.965 315.709 642.066 280.76 640.636 246.643L640.649 246.649ZM411.509 77.2684C418.972 77.2684 425.973 79.4471 432.331 83.7458L603.893 199.708C617.317 208.78 625.528 226.112 626.412 247.254C627.654 277.001 614.632 307.358 593.237 324.586L401.426 479.054C391.206 487.268 380.278 491.606 369.818 491.606C363.779 491.606 357.973 490.162 352.564 487.32C334.44 477.793 324.474 454.53 326.554 426.618L346.739 156.233C349.164 123.787 367.289 93.9952 391.843 82.1005C398.455 78.8943 405.073 77.2684 411.502 77.2684H411.509Z" fill="url(#paint7_linear_206_13)"/>
</g>
<g filter="url(#filter8_d_206_13)">
<path d="M670.443 195.74C664.267 166.774 647.072 144.74 623.272 135.278L390.407 42.7345C382.501 39.5933 374.206 38 365.761 38C349.938 38 334.232 43.5799 320.332 54.1349C291.305 76.1879 275.216 115.455 279.337 154.177L311.205 453.085C315.002 488.711 334.368 515.895 363.011 525.813C370.052 528.252 377.379 529.487 384.79 529.487C404.891 529.487 424.79 520.428 440.809 503.974L641.813 297.609C667.29 271.452 678.257 232.425 670.443 195.753V195.74ZM367.673 512.338C344.38 504.274 328.569 481.557 325.371 451.57L293.503 152.661C289.895 118.805 303.8 84.5838 328.94 65.4898C340.336 56.8338 353.065 52.2619 365.761 52.2619C372.399 52.2619 378.919 53.5171 385.141 55.9884L618.013 148.532C637.314 156.199 651.343 174.493 656.505 198.718C663.338 230.793 653.801 264.871 631.606 287.652L430.602 494.018C417.288 507.688 401.01 515.219 384.77 515.219C378.945 515.219 373.192 514.25 367.673 512.338Z" fill="url(#paint8_linear_206_13)"/>
</g>
<g filter="url(#filter9_d_206_13)">
<path d="M698.95 134.367C686.169 101.447 660.295 79.2049 627.972 73.3454L325.429 18.4698C320.072 17.4943 314.631 17 309.255 17C282.731 17 257.695 28.8492 238.752 50.3754C212.436 80.2845 203.64 122.739 215.797 161.18L316.926 480.906C328.472 517.403 356.146 542.799 390.946 548.847C396.023 549.732 401.185 550.174 406.289 550.174C433.06 550.174 458.654 537.909 477.422 516.298L477.578 516.473L683.361 245.88C707.408 214.261 713.382 171.527 698.944 134.354L698.95 134.367ZM672.023 237.257L470.603 502.114C454.266 523.601 430.817 535.918 406.276 535.918C401.978 535.918 397.642 535.541 393.384 534.806C363.922 529.688 340.414 507.928 330.507 476.608L229.384 156.881C218.722 123.181 226.406 85.9815 249.446 59.8053C265.64 41.4007 286.878 31.2684 309.261 31.2684C313.773 31.2684 318.356 31.6847 322.874 32.5041L625.424 87.3797C652.761 92.3353 674.714 111.345 685.662 139.537C698.313 172.119 693.086 209.565 672.016 237.263L672.023 237.257Z" fill="url(#paint9_linear_206_13)"/>
</g>
<g filter="url(#filter10_d_206_13)">
<path d="M725.058 60.8167C703.8 23.988 665.73 2 623.22 2H243.777C201.267 2 163.197 23.988 141.939 60.8167C120.687 97.6454 120.687 141.621 141.939 178.45L331.664 507.183C352.922 544.012 390.992 566 433.495 566C476.005 566 514.075 544.012 535.333 507.183L725.058 178.45C746.31 141.621 746.31 97.6454 725.058 60.8167ZM243.777 16.2554H623.22C660.581 16.2554 694.035 35.577 712.713 67.9444C731.396 100.312 731.396 138.955 712.713 171.322L522.994 500.056C504.317 532.423 470.856 551.745 433.495 551.745C396.134 551.745 362.68 532.423 344.003 500.056L154.284 171.322C135.607 138.955 135.607 100.312 154.284 67.9444C172.962 35.5835 206.416 16.2554 243.777 16.2554Z" fill="url(#paint10_linear_206_13)"/>
</g>
<path d="M2890.75 147.299H3003.62C3030.61 147.299 3054.44 152.462 3075.15 162.839C3095.87 173.191 3111.94 187.766 3123.42 206.565C3134.91 225.365 3140.64 247.267 3140.64 272.246C3140.64 297.225 3134.91 319.127 3123.42 337.926C3111.94 356.725 3095.87 371.301 3075.15 381.652C3054.44 392.003 3030.61 397.192 3003.62 397.192H2890.75V147.299ZM3000.77 349.711C3025.63 349.711 3045.44 342.75 3060.24 328.826C3075.02 314.903 3082.44 296.051 3082.44 272.246C3082.44 248.44 3075.05 229.589 3060.24 215.665C3045.47 201.742 3025.63 194.78 3000.77 194.78H2948.25V349.711H3000.77Z" fill="white"/>
<path d="M900 147.299H956.698V397.192H900V147.299Z" fill="white"/>
<path d="M1774.58 193.679H1830.49H1905.31V147.299H1717.4V193.679H1774.58Z" fill="white"/>
<path d="M1774.58 350.641V292.849H1890.03V247.902H1830.49H1774.58H1717.4V397.021H1909.9V350.641H1774.58Z" fill="white"/>
<path d="M1290.59 147.299V397.192H1243.6L1120.33 245.468V397.192H1063.8V147.299H1111.14L1234.06 299.024V147.299H1290.59Z" fill="white"/>
<path d="M2378.28 397.541C2360 392.173 2345.34 385.242 2334.26 376.67L2353.7 333.156C2364.31 340.999 2376.91 347.305 2391.52 352.073C2406.14 356.815 2420.75 359.212 2435.36 359.212C2451.63 359.212 2463.63 356.763 2471.43 351.891C2479.2 347.018 2483.1 340.53 2483.1 332.453C2483.1 326.512 2480.8 321.561 2476.21 317.653C2471.61 313.745 2465.72 310.592 2458.55 308.195C2451.34 305.824 2441.64 303.192 2429.37 300.352C2410.53 295.844 2395.09 291.31 2383.08 286.803C2371.05 282.295 2360.75 275.025 2352.15 265.046C2343.55 255.067 2339.24 241.726 2339.24 225.076C2339.24 210.563 2343.14 197.431 2350.91 185.653C2358.68 173.876 2370.41 164.548 2386.1 157.643C2401.77 150.738 2420.91 147.299 2443.55 147.299C2459.35 147.299 2474.76 149.201 2489.86 153.005C2504.94 156.81 2518.14 162.281 2529.44 169.421L2511.76 213.299C2488.91 200.245 2466.06 193.679 2443.19 193.679C2427.15 193.679 2415.3 196.284 2407.66 201.522C2399.99 206.759 2396.17 213.664 2396.17 222.21C2396.17 230.756 2400.59 237.14 2409.44 241.309C2418.27 245.478 2431.77 249.569 2449.9 253.607C2468.75 258.115 2484.18 262.649 2496.22 267.157C2508.25 271.69 2518.55 278.804 2527.15 288.575C2535.74 298.319 2540.05 311.53 2540.05 328.18C2540.05 342.458 2536.1 355.46 2528.23 367.238C2520.33 379.015 2508.51 388.343 2492.7 395.248C2476.9 402.153 2457.72 405.592 2435.08 405.592C2415.51 405.592 2396.61 402.908 2378.36 397.567L2378.28 397.541Z" fill="white"/>
<path d="M1641.28 147.299L1534 397.192H1477.33L1370.39 147.299H1432.36L1507.77 325.802L1584.28 147.299H1641.28Z" fill="white"/>
<path d="M2200.21 316.876C2216.73 309.731 2229.47 299.431 2238.44 286.001C2247.41 272.546 2251.89 256.534 2251.89 237.968C2251.89 219.401 2247.46 203.338 2238.63 189.778C2229.76 176.218 2217.15 165.761 2200.73 158.382C2184.34 151.002 2165.01 147.299 2142.75 147.299H2033.97V194.602H2092.13V194.42H2139.52C2156.99 194.42 2170.28 198.175 2179.38 205.659C2188.48 213.143 2193.02 223.939 2193.02 237.968C2193.02 251.997 2188.48 262.48 2179.38 270.094C2170.28 277.709 2157.01 281.516 2139.52 281.516H2033.97V397.192H2092.13V327.567H2145.63L2194.1 397.192H2256.56L2200.18 316.85L2200.21 316.876Z" fill="white"/>
<path d="M2677.73 193.679H2733.64H2808.46V147.299H2620.56V193.679H2677.73Z" fill="white"/>
<path d="M2677.73 350.641V292.849H2793.18V247.902H2733.64H2677.73H2620.55V397.021H2813.05V350.641H2677.73Z" fill="white"/>
<path d="M3640.49 196.858H3697.31H3773.39V149.764H3582.31V196.858H3640.49Z" fill="white"/>
<path d="M3640.49 356.339V297.652H3757.89V251.94H3697.31H3640.49H3582.31V403.432H3778.06V356.339H3640.49Z" fill="white"/>
<path d="M3370.38 197.029H3289.46V149.124H3509.95V197.029H3429.03V403.272H3370.44V197.029H3370.38Z" fill="white"/>
<path d="M3911.2 386.399C3890.35 375.171 3874 359.62 3862.08 339.685C3850.16 319.75 3844.17 297.234 3844.17 272.136C3844.17 247.037 3850.16 224.521 3862.08 204.586C3874 184.652 3890.41 169.101 3911.2 157.872C3932.04 146.644 3955.46 141 3981.46 141C4003.38 141 4023.2 144.843 4040.93 152.588C4058.66 160.334 4073.52 171.442 4085.56 185.913L4047.94 220.678C4030.81 200.864 4009.61 190.956 3984.33 190.956C3968.7 190.956 3954.68 194.379 3942.4 201.284C3930.13 208.189 3920.54 217.736 3913.65 230.105C3906.77 242.414 3903.35 256.404 3903.35 272.136C3903.35 287.867 3906.77 301.857 3913.65 314.166C3920.54 326.475 3930.13 336.082 3942.4 342.987C3954.68 349.893 3968.64 353.315 3984.33 353.315C4009.61 353.315 4030.81 343.288 4047.94 323.233L4085.56 357.998C4073.52 372.709 4058.6 383.937 4040.75 391.683C4022.9 399.429 4003.02 403.271 3981.1 403.271C3955.28 403.271 3931.98 397.627 3911.14 386.399H3911.2Z" fill="white"/>
<path d="M4398.31 149.124V403.272H4340.01V299.037H4225.61V403.272H4167.37V149.124H4225.61V249.327H4340.01V149.124H4398.31Z" fill="white"/>
<defs>
<filter id="filter0_d_206_13" x="360.862" y="210" width="165.573" height="151.341" filterUnits="userSpaceOnUse" color-interpolation-filters="sRGB">
<feFlood flood-opacity="0" result="BackgroundImageFix"/>
<feColorMatrix in="SourceAlpha" type="matrix" values="0 0 0 0 0 0 0 0 0 0 0 0 0 0 0 0 0 0 127 0" result="hardAlpha"/>
<feOffset dx="2" dy="2"/>
<feGaussianBlur stdDeviation="2"/>
<feComposite in2="hardAlpha" operator="out"/>
<feColorMatrix type="matrix" values="0 0 0 0 0 0 0 0 0 0 0 0 0 0 0 0 0 0 0.3 0"/>
<feBlend mode="normal" in2="BackgroundImageFix" result="effect1_dropShadow_206_13"/>
<feBlend mode="normal" in="SourceGraphic" in2="effect1_dropShadow_206_13" result="shape"/>
</filter>
<filter id="filter1_d_206_13" x="351.331" y="198" width="179.774" height="176.002" filterUnits="userSpaceOnUse" color-interpolation-filters="sRGB">
<feFlood flood-opacity="0" result="BackgroundImageFix"/>
<feColorMatrix in="SourceAlpha" type="matrix" values="0 0 0 0 0 0 0 0 0 0 0 0 0 0 0 0 0 0 127 0" result="hardAlpha"/>
<feOffset dx="2" dy="2"/>
<feGaussianBlur stdDeviation="2"/>
<feComposite in2="hardAlpha" operator="out"/>
<feColorMatrix type="matrix" values="0 0 0 0 0 0 0 0 0 0 0 0 0 0 0 0 0 0 0.3 0"/>
<feBlend mode="normal" in2="BackgroundImageFix" result="effect1_dropShadow_206_13"/>
<feBlend mode="normal" in="SourceGraphic" in2="effect1_dropShadow_206_13" result="shape"/>
</filter>
<filter id="filter2_d_206_13" x="342.014" y="185" width="191.02" height="201.821" filterUnits="userSpaceOnUse" color-interpolation-filters="sRGB">
<feFlood flood-opacity="0" result="BackgroundImageFix"/>
<feColorMatrix in="SourceAlpha" type="matrix" values="0 0 0 0 0 0 0 0 0 0 0 0 0 0 0 0 0 0 127 0" result="hardAlpha"/>
<feOffset dx="2" dy="2"/>
<feGaussianBlur stdDeviation="2"/>
<feComposite in2="hardAlpha" operator="out"/>
<feColorMatrix type="matrix" values="0 0 0 0 0 0 0 0 0 0 0 0 0 0 0 0 0 0 0.3 0"/>
<feBlend mode="normal" in2="BackgroundImageFix" result="effect1_dropShadow_206_13"/>
<feBlend mode="normal" in="SourceGraphic" in2="effect1_dropShadow_206_13" result="shape"/>
</filter>
<filter id="filter3_d_206_13" x="333.173" y="164" width="210.915" height="244.476" filterUnits="userSpaceOnUse" color-interpolation-filters="sRGB">
<feFlood flood-opacity="0" result="BackgroundImageFix"/>
<feColorMatrix in="SourceAlpha" type="matrix" values="0 0 0 0 0 0 0 0 0 0 0 0 0 0 0 0 0 0 127 0" result="hardAlpha"/>
<feOffset dx="2" dy="2"/>
<feGaussianBlur stdDeviation="2"/>
<feComposite in2="hardAlpha" operator="out"/>
<feColorMatrix type="matrix" values="0 0 0 0 0 0 0 0 0 0 0 0 0 0 0 0 0 0 0.3 0"/>
<feBlend mode="normal" in2="BackgroundImageFix" result="effect1_dropShadow_206_13"/>
<feBlend mode="normal" in="SourceGraphic" in2="effect1_dropShadow_206_13" result="shape"/>
</filter>
<filter id="filter4_d_206_13" x="325.278" y="139" width="240.513" height="293.187" filterUnits="userSpaceOnUse" color-interpolation-filters="sRGB">
<feFlood flood-opacity="0" result="BackgroundImageFix"/>
<feColorMatrix in="SourceAlpha" type="matrix" values="0 0 0 0 0 0 0 0 0 0 0 0 0 0 0 0 0 0 127 0" result="hardAlpha"/>
<feOffset dx="2" dy="2"/>
<feGaussianBlur stdDeviation="2"/>
<feComposite in2="hardAlpha" operator="out"/>
<feColorMatrix type="matrix" values="0 0 0 0 0 0 0 0 0 0 0 0 0 0 0 0 0 0 0.3 0"/>
<feBlend mode="normal" in2="BackgroundImageFix" result="effect1_dropShadow_206_13"/>
<feBlend mode="normal" in="SourceGraphic" in2="effect1_dropShadow_206_13" result="shape"/>
</filter>
<filter id="filter5_d_206_13" x="318.625" y="113" width="271.45" height="345.071" filterUnits="userSpaceOnUse" color-interpolation-filters="sRGB">
<feFlood flood-opacity="0" result="BackgroundImageFix"/>
<feColorMatrix in="SourceAlpha" type="matrix" values="0 0 0 0 0 0 0 0 0 0 0 0 0 0 0 0 0 0 127 0" result="hardAlpha"/>
<feOffset dx="2" dy="2"/>
<feGaussianBlur stdDeviation="2"/>
<feComposite in2="hardAlpha" operator="out"/>
<feColorMatrix type="matrix" values="0 0 0 0 0 0 0 0 0 0 0 0 0 0 0 0 0 0 0.3 0"/>
<feBlend mode="normal" in2="BackgroundImageFix" result="effect1_dropShadow_206_13"/>
<feBlend mode="normal" in="SourceGraphic" in2="effect1_dropShadow_206_13" result="shape"/>
</filter>
<filter id="filter6_d_206_13" x="313.522" y="87" width="303.548" height="398.346" filterUnits="userSpaceOnUse" color-interpolation-filters="sRGB">
<feFlood flood-opacity="0" result="BackgroundImageFix"/>
<feColorMatrix in="SourceAlpha" type="matrix" values="0 0 0 0 0 0 0 0 0 0 0 0 0 0 0 0 0 0 127 0" result="hardAlpha"/>
<feOffset dx="2" dy="2"/>
<feGaussianBlur stdDeviation="2"/>
<feComposite in2="hardAlpha" operator="out"/>
<feColorMatrix type="matrix" values="0 0 0 0 0 0 0 0 0 0 0 0 0 0 0 0 0 0 0.3 0"/>
<feBlend mode="normal" in2="BackgroundImageFix" result="effect1_dropShadow_206_13"/>
<feBlend mode="normal" in="SourceGraphic" in2="effect1_dropShadow_206_13" result="shape"/>
</filter>
<filter id="filter7_d_206_13" x="310.026" y="61" width="336.703" height="450.868" filterUnits="userSpaceOnUse" color-interpolation-filters="sRGB">
<feFlood flood-opacity="0" result="BackgroundImageFix"/>
<feColorMatrix in="SourceAlpha" type="matrix" values="0 0 0 0 0 0 0 0 0 0 0 0 0 0 0 0 0 0 127 0" result="hardAlpha"/>
<feOffset dx="2" dy="2"/>
<feGaussianBlur stdDeviation="2"/>
<feComposite in2="hardAlpha" operator="out"/>
<feColorMatrix type="matrix" values="0 0 0 0 0 0 0 0 0 0 0 0 0 0 0 0 0 0 0.3 0"/>
<feBlend mode="normal" in2="BackgroundImageFix" result="effect1_dropShadow_206_13"/>
<feBlend mode="normal" in="SourceGraphic" in2="effect1_dropShadow_206_13" result="shape"/>
</filter>
<filter id="filter8_d_206_13" x="276.699" y="36" width="402.223" height="499.487" filterUnits="userSpaceOnUse" color-interpolation-filters="sRGB">
<feFlood flood-opacity="0" result="BackgroundImageFix"/>
<feColorMatrix in="SourceAlpha" type="matrix" values="0 0 0 0 0 0 0 0 0 0 0 0 0 0 0 0 0 0 127 0" result="hardAlpha"/>
<feOffset dx="2" dy="2"/>
<feGaussianBlur stdDeviation="2"/>
<feComposite in2="hardAlpha" operator="out"/>
<feColorMatrix type="matrix" values="0 0 0 0 0 0 0 0 0 0 0 0 0 0 0 0 0 0 0.3 0"/>
<feBlend mode="normal" in2="BackgroundImageFix" result="effect1_dropShadow_206_13"/>
<feBlend mode="normal" in="SourceGraphic" in2="effect1_dropShadow_206_13" result="shape"/>
</filter>
<filter id="filter9_d_206_13" x="208.42" y="15" width="504.29" height="541.174" filterUnits="userSpaceOnUse" color-interpolation-filters="sRGB">
<feFlood flood-opacity="0" result="BackgroundImageFix"/>
<feColorMatrix in="SourceAlpha" type="matrix" values="0 0 0 0 0 0 0 0 0 0 0 0 0 0 0 0 0 0 127 0" result="hardAlpha"/>
<feOffset dx="2" dy="2"/>
<feGaussianBlur stdDeviation="2"/>
<feComposite in2="hardAlpha" operator="out"/>
<feColorMatrix type="matrix" values="0 0 0 0 0 0 0 0 0 0 0 0 0 0 0 0 0 0 0.3 0"/>
<feBlend mode="normal" in2="BackgroundImageFix" result="effect1_dropShadow_206_13"/>
<feBlend mode="normal" in="SourceGraphic" in2="effect1_dropShadow_206_13" result="shape"/>
</filter>
<filter id="filter10_d_206_13" x="124" y="0" width="622.997" height="572" filterUnits="userSpaceOnUse" color-interpolation-filters="sRGB">
<feFlood flood-opacity="0" result="BackgroundImageFix"/>
<feColorMatrix in="SourceAlpha" type="matrix" values="0 0 0 0 0 0 0 0 0 0 0 0 0 0 0 0 0 0 127 0" result="hardAlpha"/>
<feOffset dx="2" dy="2"/>
<feGaussianBlur stdDeviation="2"/>
<feComposite in2="hardAlpha" operator="out"/>
<feColorMatrix type="matrix" values="0 0 0 0 0 0 0 0 0 0 0 0 0 0 0 0 0 0 0.3 0"/>
<feBlend mode="normal" in2="BackgroundImageFix" result="effect1_dropShadow_206_13"/>
<feBlend mode="normal" in="SourceGraphic" in2="effect1_dropShadow_206_13" result="shape"/>
</filter>
<linearGradient id="paint0_linear_206_13" x1="445.894" y1="196.546" x2="442.873" y2="359.517" gradientUnits="userSpaceOnUse">
<stop stop-color="#343779"/>
<stop offset="0.117271" stop-color="#982062"/>
<stop offset="0.209755" stop-color="#33A9AC"/>
<stop offset="0.386003" stop-color="#F86041"/>
<stop offset="0.5" stop-color="#FFA646"/>
<stop offset="0.625" stop-color="#F86041"/>
<stop offset="0.75" stop-color="#33A9AC"/>
<stop offset="0.875" stop-color="#982062"/>
<stop offset="1" stop-color="#343779"/>
</linearGradient>
<linearGradient id="paint1_linear_206_13" x1="443.846" y1="181.887" x2="440.039" y2="372.886" gradientUnits="userSpaceOnUse">
<stop stop-color="#343779"/>
<stop offset="0.117271" stop-color="#982062"/>
<stop offset="0.209755" stop-color="#33A9AC"/>
<stop offset="0.386003" stop-color="#F86041"/>
<stop offset="0.5" stop-color="#FFA646"/>
<stop offset="0.625" stop-color="#F86041"/>
<stop offset="0.75" stop-color="#33A9AC"/>
<stop offset="0.875" stop-color="#982062"/>
<stop offset="1" stop-color="#343779"/>
</linearGradient>
<linearGradient id="paint2_linear_206_13" x1="440.456" y1="166.104" x2="435.7" y2="386.44" gradientUnits="userSpaceOnUse">
<stop stop-color="#343779"/>
<stop offset="0.117271" stop-color="#982062"/>
<stop offset="0.209755" stop-color="#33A9AC"/>
<stop offset="0.386003" stop-color="#F86041"/>
<stop offset="0.5" stop-color="#FFA646"/>
<stop offset="0.625" stop-color="#F86041"/>
<stop offset="0.75" stop-color="#33A9AC"/>
<stop offset="0.875" stop-color="#982062"/>
<stop offset="1" stop-color="#343779"/>
</linearGradient>
<linearGradient id="paint3_linear_206_13" x1="442.098" y1="140.505" x2="435.714" y2="409.306" gradientUnits="userSpaceOnUse">
<stop stop-color="#343779"/>
<stop offset="0.117271" stop-color="#982062"/>
<stop offset="0.209755" stop-color="#33A9AC"/>
<stop offset="0.386003" stop-color="#F86041"/>
<stop offset="0.5" stop-color="#FFA646"/>
<stop offset="0.625" stop-color="#F86041"/>
<stop offset="0.75" stop-color="#33A9AC"/>
<stop offset="0.875" stop-color="#982062"/>
<stop offset="1" stop-color="#343779"/>
</linearGradient>
<linearGradient id="paint4_linear_206_13" x1="449.799" y1="110.253" x2="441.696" y2="434.404" gradientUnits="userSpaceOnUse">
<stop stop-color="#343779"/>
<stop offset="0.117271" stop-color="#982062"/>
<stop offset="0.209755" stop-color="#33A9AC"/>
<stop offset="0.386003" stop-color="#F86041"/>
<stop offset="0.5" stop-color="#FFA646"/>
<stop offset="0.625" stop-color="#F86041"/>
<stop offset="0.75" stop-color="#33A9AC"/>
<stop offset="0.875" stop-color="#982062"/>
<stop offset="1" stop-color="#343779"/>
</linearGradient>
<linearGradient id="paint5_linear_206_13" x1="459.449" y1="78.6593" x2="449.459" y2="461.762" gradientUnits="userSpaceOnUse">
<stop stop-color="#343779"/>
<stop offset="0.117271" stop-color="#982062"/>
<stop offset="0.209755" stop-color="#33A9AC"/>
<stop offset="0.386003" stop-color="#F86041"/>
<stop offset="0.5" stop-color="#FFA646"/>
<stop offset="0.625" stop-color="#F86041"/>
<stop offset="0.75" stop-color="#33A9AC"/>
<stop offset="0.875" stop-color="#982062"/>
<stop offset="1" stop-color="#343779"/>
</linearGradient>
<linearGradient id="paint6_linear_206_13" x1="471.26" y1="46.9154" x2="459.317" y2="490.55" gradientUnits="userSpaceOnUse">
<stop stop-color="#343779"/>
<stop offset="0.117271" stop-color="#982062"/>
<stop offset="0.209755" stop-color="#33A9AC"/>
<stop offset="0.386003" stop-color="#F86041"/>
<stop offset="0.5" stop-color="#FFA646"/>
<stop offset="0.625" stop-color="#F86041"/>
<stop offset="0.75" stop-color="#33A9AC"/>
<stop offset="0.875" stop-color="#982062"/>
<stop offset="1" stop-color="#343779"/>
</linearGradient>
<linearGradient id="paint7_linear_206_13" x1="485.235" y1="15.2529" x2="471.414" y2="518.564" gradientUnits="userSpaceOnUse">
<stop stop-color="#343779"/>
<stop offset="0.117271" stop-color="#982062"/>
<stop offset="0.209755" stop-color="#33A9AC"/>
<stop offset="0.386003" stop-color="#F86041"/>
<stop offset="0.5" stop-color="#FFA646"/>
<stop offset="0.625" stop-color="#F86041"/>
<stop offset="0.75" stop-color="#33A9AC"/>
<stop offset="0.875" stop-color="#982062"/>
<stop offset="1" stop-color="#343779"/>
</linearGradient>
<linearGradient id="paint8_linear_206_13" x1="486.433" y1="-14.9889" x2="472.238" y2="543.637" gradientUnits="userSpaceOnUse">
<stop stop-color="#343779"/>
<stop offset="0.117271" stop-color="#982062"/>
<stop offset="0.209755" stop-color="#33A9AC"/>
<stop offset="0.386003" stop-color="#F86041"/>
<stop offset="0.5" stop-color="#FFA646"/>
<stop offset="0.625" stop-color="#F86041"/>
<stop offset="0.75" stop-color="#33A9AC"/>
<stop offset="0.875" stop-color="#982062"/>
<stop offset="1" stop-color="#343779"/>
</linearGradient>
<linearGradient id="paint9_linear_206_13" x1="471.938" y1="-40.4833" x2="458.666" y2="565.625" gradientUnits="userSpaceOnUse">
<stop stop-color="#343779"/>
<stop offset="0.117271" stop-color="#982062"/>
<stop offset="0.209755" stop-color="#33A9AC"/>
<stop offset="0.386003" stop-color="#F86041"/>
<stop offset="0.5" stop-color="#FFA646"/>
<stop offset="0.625" stop-color="#F86041"/>
<stop offset="0.75" stop-color="#33A9AC"/>
<stop offset="0.875" stop-color="#982062"/>
<stop offset="1" stop-color="#343779"/>
</linearGradient>
<linearGradient id="paint10_linear_206_13" x1="450.07" y1="-58.8067" x2="438.084" y2="582.428" gradientUnits="userSpaceOnUse">
<stop stop-color="#343779"/>
<stop offset="0.117271" stop-color="#982062"/>
<stop offset="0.209755" stop-color="#33A9AC"/>
<stop offset="0.386003" stop-color="#F86041"/>
<stop offset="0.5" stop-color="#FFA646"/>
<stop offset="0.625" stop-color="#F86041"/>
<stop offset="0.75" stop-color="#33A9AC"/>
<stop offset="0.875" stop-color="#982062"/>
<stop offset="1" stop-color="#343779"/>
</linearGradient>
</defs>
</svg>
