<svg width="15" height="15" viewBox="0 0 15 15" fill="none" xmlns="http://www.w3.org/2000/svg">
<g id="purpose-2">
<path id="Vector" d="M9.05601 12.9998H5.95054C5.88466 12.9998 5.83076 12.9455 5.83076 12.8792V9.78264C4.18309 9.11473 3.08105 7.47812 3.08105 5.68418C3.08165 3.24825 5.05094 1.26624 7.47123 1.26624C9.89152 1.26624 11.8608 3.24825 11.8608 5.68418C11.8608 7.4745 10.8097 9.06409 9.17579 9.75611V12.8786C9.17579 12.9449 9.12189 12.9992 9.05601 12.9992V12.9998ZM6.07033 12.7587H8.93622V9.67594C8.93622 9.62651 8.96617 9.58251 9.01169 9.56382C10.5971 8.92545 11.6212 7.40277 11.6212 5.68418C11.6212 3.38087 9.75975 1.50736 7.47123 1.50736C5.18271 1.50736 3.32123 3.38087 3.32123 5.68418C3.32123 7.40639 4.39511 8.97548 5.99366 9.58793C6.04038 9.60541 6.07093 9.65062 6.07093 9.70065V12.7587H6.07033Z" fill="#1C1E49"/>
<path id="Vector_2" d="M9.05606 11.7628H5.9506C5.88471 11.7628 5.83081 11.7086 5.83081 11.6423C5.83081 11.576 5.88471 11.5217 5.9506 11.5217H9.05606C9.12195 11.5217 9.17585 11.576 9.17585 11.6423C9.17585 11.7086 9.12195 11.7628 9.05606 11.7628Z" fill="#1C1E49"/>
<path id="Vector_3" d="M4.00887 9.88384C3.23205 9.88384 2.6433 9.65116 2.31808 9.19544C1.90961 8.62398 1.96231 7.75353 2.46661 6.74504C2.49656 6.68536 2.56783 6.66125 2.62773 6.69139C2.68702 6.72153 2.71038 6.79387 2.68103 6.85355C2.21866 7.77764 2.15936 8.55948 2.51273 9.05498C2.96912 9.69335 4.06217 9.82054 5.51159 9.4034C5.51339 9.4034 5.51578 9.4022 5.51758 9.4016C6.14346 9.22075 6.80109 8.94768 7.47249 8.59022C8.00614 8.3063 8.5356 7.97416 9.04769 7.60404C9.9946 6.91805 10.8325 6.1332 11.4716 5.33448C11.5195 5.27601 11.568 5.21332 11.6207 5.14339C12.6652 3.76659 12.9905 2.52783 12.4916 1.82979C12.0981 1.27943 11.2314 1.10642 10.0509 1.34393C9.98622 1.35659 9.92273 1.31439 9.91015 1.24929C9.89697 1.18418 9.9395 1.12029 10.0042 1.10763C11.2823 0.850834 12.2346 1.05699 12.6862 1.68933C13.2498 2.4784 12.9228 3.82446 11.8112 5.28988C11.7567 5.36221 11.7064 5.42671 11.6572 5.48699C11.0056 6.30198 10.1509 7.1019 9.18724 7.80055C8.66677 8.1773 8.12773 8.51487 7.58449 8.80422C6.89692 9.17072 6.22192 9.45042 5.57807 9.63609C5.57567 9.63609 5.57388 9.63729 5.57148 9.63789C4.99471 9.80306 4.46885 9.88504 4.00887 9.88504V9.88384Z" fill="#1C1E49"/>
<path id="Vector_4" d="M10.9972 9.82838C10.7989 9.82838 10.5881 9.81391 10.3665 9.78377C10.3012 9.77473 10.2551 9.71445 10.2635 9.64814C10.2719 9.58183 10.3324 9.53602 10.3983 9.54446C11.4344 9.6831 12.1975 9.48056 12.5472 8.97481C13.0312 8.27495 12.694 7.05187 11.6464 5.704C11.5913 5.63227 11.5332 5.55933 11.4733 5.48699C10.8217 4.69852 9.97182 3.92694 9.01353 3.25541C8.49246 2.89072 7.95701 2.56701 7.42276 2.29394C6.97776 2.06548 6.53095 1.87078 6.09553 1.71525C4.36042 1.09738 2.96611 1.17092 2.45701 1.90875C2.0725 2.46454 2.19887 3.34282 2.81158 4.38326C2.84512 4.44052 2.82655 4.51467 2.76966 4.54843C2.71276 4.58279 2.63909 4.5635 2.60555 4.50623C1.94193 3.38019 1.81915 2.40848 2.25996 1.77131C2.84273 0.927991 4.30592 0.821898 6.17459 1.4886C6.62019 1.64714 7.07658 1.84606 7.53057 2.07935C8.0744 2.35784 8.61943 2.68697 9.14949 3.05769C10.1251 3.74127 10.9918 4.52793 11.656 5.33267C11.7183 5.40742 11.7782 5.48277 11.8345 5.55631C12.9497 6.99098 13.2899 8.32077 12.7431 9.11225C12.4185 9.58183 11.8093 9.82777 10.9966 9.82777L10.9972 9.82838Z" fill="#1C1E49"/>
</g>
</svg>
