<svg width="15" height="15" viewBox="0 0 15 15" fill="none" xmlns="http://www.w3.org/2000/svg">
<g id="purpose-1">
<path id="Vector" d="M9.55556 14C9.36596 14 9.17636 13.9803 8.99275 13.9409C8.9209 13.9259 8.87433 13.8539 8.88963 13.7805C8.90427 13.707 8.97545 13.6595 9.04663 13.6751C9.21295 13.7104 9.38392 13.7281 9.55556 13.7281C10.9307 13.7281 12.049 12.5854 12.049 11.1803C12.049 11.0124 12.033 10.8445 12.0011 10.6821C11.9871 10.6086 12.0337 10.5366 12.1055 10.5223C12.178 10.508 12.2479 10.5556 12.2619 10.629C12.2971 10.8092 12.3144 10.9947 12.3144 11.1803C12.3144 12.735 11.0764 14 9.5549 14H9.55556Z" fill="#1C1E49"/>
<path id="Vector_2" d="M8.11259 13.5588C8.08731 13.5588 8.06203 13.5514 8.03941 13.5364C7.26104 13.0123 6.79602 12.1313 6.79602 11.1803C6.79602 9.62565 8.03408 8.3606 9.55555 8.3606C10.5681 8.3606 11.4981 8.92617 11.9818 9.83571C12.017 9.90164 11.9931 9.98458 11.9286 10.0199C11.864 10.056 11.7835 10.0315 11.7483 9.96554C11.3112 9.14302 10.471 8.63251 9.55622 8.63251C8.18111 8.63251 7.06279 9.77521 7.06279 11.1803C7.06279 12.0402 7.48258 12.8355 8.18643 13.3094C8.24763 13.3508 8.26493 13.4351 8.22435 13.4976C8.19907 13.5371 8.15649 13.5588 8.11325 13.5588H8.11259Z" fill="#1C1E49"/>
<path id="Vector_3" d="M9.57549 12.7785C8.70399 12.7785 7.99548 12.0545 7.99548 11.164C7.99548 10.2735 8.70399 9.54956 9.57549 9.54956C10.447 9.54956 11.1555 10.2735 11.1555 11.164C11.1555 12.0545 10.447 12.7785 9.57549 12.7785ZM9.57549 9.82147C8.85102 9.82147 8.26159 10.4238 8.26159 11.164C8.26159 11.9043 8.85102 12.5066 9.57549 12.5066C10.3 12.5066 10.8894 11.9043 10.8894 11.164C10.8894 10.4238 10.3 9.82147 9.57549 9.82147Z" fill="#1C1E49"/>
<path id="Vector_4" d="M6.2964 8.08053C5.7409 8.08053 5.19272 8.02275 4.71173 7.91263C4.12763 7.77939 3.66194 7.57886 3.3639 7.33142C3.12574 7.13361 3 6.90588 3 6.67204C3 5.88214 4.44762 5.26355 6.2964 5.26355C8.14518 5.26355 9.59214 5.88214 9.59214 6.67204C9.59214 6.90588 9.4664 7.13361 9.22824 7.33142C8.9302 7.57886 8.46384 7.78007 7.88041 7.91263C7.39942 8.02207 6.85124 8.08053 6.29574 8.08053H6.2964ZM6.2964 5.53546C4.48355 5.53546 3.26611 6.12346 3.26611 6.67204C3.26611 6.82295 3.35525 6.97386 3.53155 7.12069C3.79366 7.33822 4.23341 7.52516 4.76961 7.64752C5.23197 7.75288 5.7602 7.80862 6.2964 7.80862C6.83261 7.80862 7.36017 7.75288 7.82319 7.64752C8.35873 7.52584 8.79847 7.33822 9.06126 7.12069C9.23755 6.97454 9.3267 6.82363 9.3267 6.67204C9.3267 6.12278 8.10926 5.53546 6.29707 5.53546H6.2964Z" fill="#1C1E49"/>
<path id="Vector_5" d="M6.2964 9.18929C5.74157 9.18929 5.19339 9.13151 4.71173 9.02139C4.12829 8.88883 3.66194 8.68762 3.36457 8.44018C3.12574 8.24237 3 8.01396 3 7.78012C3 7.70534 3.05987 7.64417 3.13305 7.64417C3.20623 7.64417 3.26611 7.70534 3.26611 7.78012C3.26611 7.93103 3.35525 8.08262 3.53221 8.22945C3.79433 8.44698 4.23341 8.63392 4.76961 8.75628C5.23264 8.86164 5.76086 8.91738 6.2964 8.91738C6.64301 8.91738 6.98362 8.89427 7.30894 8.8494C7.38079 8.83921 7.44865 8.89155 7.45862 8.96565C7.4686 9.03974 7.41738 9.1084 7.34486 9.1186C7.00757 9.1655 6.65498 9.18929 6.2964 9.18929Z" fill="#1C1E49"/>
<path id="Vector_6" d="M6.2964 10.2973C5.74157 10.2973 5.19339 10.2395 4.71173 10.1294C4.12763 9.99611 3.66194 9.7949 3.36457 9.54814C3.12574 9.35033 3 9.1226 3 8.88876C3 8.81399 3.05987 8.75281 3.13305 8.75281C3.20623 8.75281 3.26611 8.81399 3.26611 8.88876C3.26611 9.04035 3.35525 9.19126 3.53221 9.33741C3.79433 9.55494 4.23341 9.74188 4.76961 9.86424C5.23264 9.9696 5.76086 10.0253 6.2964 10.0253C6.38156 10.0253 6.46538 10.024 6.54854 10.0213C6.62172 10.0179 6.68359 10.0777 6.68625 10.1525C6.68891 10.2272 6.63103 10.2905 6.55785 10.2932C6.47403 10.2959 6.38821 10.2973 6.2964 10.2973Z" fill="#1C1E49"/>
<path id="Vector_7" d="M6.2964 11.4053C5.74223 11.4053 5.19405 11.3475 4.71173 11.2374C4.12763 11.1041 3.66194 10.9029 3.3639 10.6562C3.12574 10.459 3 10.2306 3 9.99679C3 9.92202 3.05987 9.86084 3.13305 9.86084C3.20623 9.86084 3.26611 9.92202 3.26611 9.99679C3.26611 10.1477 3.35525 10.2986 3.53155 10.4448C3.79366 10.6623 4.23274 10.8499 4.76895 10.9716C5.23264 11.077 5.7602 11.1327 6.29574 11.1327C6.31037 11.1327 6.32501 11.1327 6.34031 11.1327C6.34164 11.1327 6.34231 11.1327 6.34364 11.1327C6.41549 11.1327 6.47469 11.1912 6.47669 11.2653C6.47869 11.34 6.42014 11.4026 6.34696 11.4046C6.32967 11.4046 6.31303 11.4046 6.2964 11.4046V11.4053Z" fill="#1C1E49"/>
<path id="Vector_8" d="M6.2964 12.5133C5.0437 12.5133 3.92073 12.2265 3.36457 11.7649C3.12574 11.5671 3 11.3387 3 11.1048C3 11.0301 3.05987 10.9689 3.13305 10.9689C3.20623 10.9689 3.26611 11.0301 3.26611 11.1048C3.26611 11.2564 3.35525 11.4073 3.53221 11.5535C4.03516 11.9715 5.12021 12.2414 6.2964 12.2414C6.37091 12.2414 6.44476 12.2407 6.51794 12.238C6.51927 12.238 6.5206 12.238 6.52193 12.238C6.59378 12.238 6.65232 12.2965 6.65498 12.3699C6.65698 12.4447 6.59976 12.5079 6.52592 12.5099C6.45008 12.5126 6.37357 12.5133 6.2964 12.5133Z" fill="#1C1E49"/>
<path id="Vector_9" d="M6.2964 13.6214C4.44762 13.6214 3 13.0028 3 12.2136C3 12.1388 3.05987 12.0776 3.13305 12.0776C3.20623 12.0776 3.26611 12.1388 3.26611 12.2136C3.26611 12.7622 4.48355 13.3495 6.2964 13.3495C6.57981 13.3495 6.85988 13.3345 7.12732 13.3039C7.19984 13.2958 7.2657 13.3495 7.27435 13.4243C7.28233 13.499 7.22977 13.5663 7.15659 13.5745C6.87918 13.6058 6.58979 13.6214 6.2964 13.6214Z" fill="#1C1E49"/>
<path id="Vector_10" d="M3.13305 12.3495C3.05987 12.3495 3 12.2883 3 12.2135V6.6727C3 6.59792 3.05987 6.53674 3.13305 6.53674C3.20623 6.53674 3.26611 6.59792 3.26611 6.6727V12.2135C3.26611 12.2883 3.20623 12.3495 3.13305 12.3495Z" fill="#1C1E49"/>
<path id="Vector_11" d="M9.45971 8.25188C9.38653 8.25188 9.32666 8.1907 9.32666 8.11593V6.67209C9.32666 6.59731 9.38653 6.53613 9.45971 6.53613C9.53289 6.53613 9.59277 6.59731 9.59277 6.67209V8.11593C9.59277 8.1907 9.53289 8.25188 9.45971 8.25188Z" fill="#1C1E49"/>
<path id="Vector_12" d="M6.36755 6.6713C6.29437 6.6713 6.2345 6.61012 6.2345 6.53534V1.90744C6.2345 1.83266 6.29437 1.77148 6.36755 1.77148C6.44073 1.77148 6.5006 1.83266 6.5006 1.90744V6.53602C6.5006 6.6108 6.44073 6.67198 6.36755 6.67198V6.6713Z" fill="#1C1E49"/>
<path id="Vector_13" d="M6.30437 2.04339H4.98315C4.90997 2.04339 4.8501 1.98221 4.8501 1.90744C4.8501 1.83266 4.90997 1.77148 4.98315 1.77148H6.30437C6.37755 1.77148 6.43743 1.83266 6.43743 1.90744C6.43743 1.98221 6.37755 2.04339 6.30437 2.04339Z" fill="#1C1E49"/>
<path id="Vector_14" d="M8.12857 4.1004H6.49267C6.41949 4.1004 6.35962 4.03922 6.35962 3.96445C6.35962 3.88967 6.41949 3.82849 6.49267 3.82849H8.12857C8.20175 3.82849 8.26162 3.88967 8.26162 3.96445C8.26162 4.03922 8.20175 4.1004 8.12857 4.1004Z" fill="#1C1E49"/>
<path id="Vector_15" d="M8.12854 4.10046C8.05536 4.10046 7.99548 4.03928 7.99548 3.96451V2.87143C7.99548 2.79665 8.05536 2.73547 8.12854 2.73547C8.20172 2.73547 8.26159 2.79665 8.26159 2.87143V3.96451C8.26159 4.03928 8.20172 4.10046 8.12854 4.10046Z" fill="#1C1E49"/>
<path id="Vector_16" d="M4.2281 2.815C3.73846 2.815 3.33997 2.40781 3.33997 1.9075C3.33997 1.40718 3.73846 1 4.2281 1C4.71774 1 5.11623 1.40718 5.11623 1.9075C5.11623 2.40781 4.71774 2.815 4.2281 2.815ZM4.2281 1.27191C3.88549 1.27191 3.60607 1.55673 3.60607 1.9075C3.60607 2.25826 3.88482 2.54309 4.2281 2.54309C4.57138 2.54309 4.85012 2.25826 4.85012 1.9075C4.85012 1.55673 4.57138 1.27191 4.2281 1.27191Z" fill="#1C1E49"/>
<path id="Vector_17" d="M8.12861 3.00738C7.63897 3.00738 7.24048 2.60019 7.24048 2.09988C7.24048 1.59957 7.63897 1.19238 8.12861 1.19238C8.61825 1.19238 9.01674 1.59957 9.01674 2.09988C9.01674 2.60019 8.61825 3.00738 8.12861 3.00738ZM8.12861 1.46429C7.786 1.46429 7.50659 1.74912 7.50659 2.09988C7.50659 2.45064 7.78533 2.73547 8.12861 2.73547C8.47189 2.73547 8.75064 2.45064 8.75064 2.09988C8.75064 1.74912 8.47189 1.46429 8.12861 1.46429Z" fill="#1C1E49"/>
</g>
</svg>
