<svg width="15" height="15" viewBox="0 0 15 15" fill="none" xmlns="http://www.w3.org/2000/svg">
<g id="purpose-3">
<g id="_&#195;&#171;&#195;&#142;&#195;&#147;&#195;&#136;_2" clip-path="url(#clip0_1_962)">
<path id="Vector" d="M7.5 14C7.29774 14 7.09549 13.9636 6.90283 13.8914C3.97014 12.7899 2 9.88748 2 6.66874V3.44181C2 3.35995 2.06643 3.29297 2.14763 3.29297C2.22883 3.29297 2.29526 3.35995 2.29526 3.44181V6.66874C2.29526 9.76394 4.18863 12.554 7.00543 13.6123C7.32432 13.7321 7.67494 13.7321 7.99383 13.6123C10.8114 12.554 12.704 9.7632 12.704 6.66874V3.44628C12.704 3.36441 12.7704 3.29743 12.8516 3.29743C12.9328 3.29743 12.9993 3.36441 12.9993 3.44628V6.66874C12.9993 9.88748 11.0291 12.7899 8.09643 13.8914C7.90377 13.9636 7.70152 14 7.49926 14H7.5Z" fill="#1D1D1B"/>
<path id="Vector_2" d="M12.8524 3.59607C12.8398 3.59607 12.828 3.59458 12.8154 3.59161C9.81632 2.81241 7.99086 1.6425 7.50294 1.30239C7.49556 1.29718 7.48523 1.29718 7.47784 1.30239C7.00469 1.63208 5.23385 2.76924 2.32847 3.5477L2.186 3.58565C2.10702 3.60723 2.02656 3.5596 2.00516 3.47997C1.98375 3.40034 2.03099 3.31922 2.10997 3.29764L2.25244 3.25968C5.11132 2.49388 6.84598 1.38053 7.31028 1.05754C7.42027 0.981633 7.56126 0.981633 7.67124 1.05754C8.14957 1.39095 9.93812 2.53705 12.89 3.30359C12.969 3.32443 13.0162 3.40555 12.9963 3.48518C12.9793 3.55216 12.9195 3.59681 12.8531 3.59681L12.8524 3.59607Z" fill="#1D1D1B"/>
<g id="Group">
<path id="Vector_3" d="M7.5457 10.5209C7.46451 10.5209 7.39807 10.4539 7.39807 10.3721V6.27067C7.39807 6.18881 7.46451 6.12183 7.5457 6.12183C7.6269 6.12183 7.69333 6.18881 7.69333 6.27067V10.3721C7.69333 10.4539 7.6269 10.5209 7.5457 10.5209Z" fill="#1D1D1B"/>
<g id="Group_2">
<path id="Vector_4" d="M5.99712 10.4903C5.91592 10.4903 5.84949 10.4233 5.84949 10.3414V6.20951C5.84949 6.12765 5.91592 6.06067 5.99712 6.06067C6.07832 6.06067 6.14475 6.12765 6.14475 6.20951V10.3414C6.14475 10.4233 6.07832 10.4903 5.99712 10.4903Z" fill="#1D1D1B"/>
<path id="Vector_5" d="M5.99701 6.35836H5.17766C5.09646 6.35836 5.03003 6.29138 5.03003 6.20951C5.03003 6.12765 5.09646 6.06067 5.17766 6.06067H5.99701C6.07821 6.06067 6.14465 6.12765 6.14465 6.20951C6.14465 6.29138 6.07821 6.35836 5.99701 6.35836Z" fill="#1D1D1B"/>
<path id="Vector_6" d="M4.38862 7.15469C3.87192 7.15469 3.4519 6.73123 3.4519 6.21028C3.4519 5.68933 3.87192 5.26587 4.38862 5.26587C4.90533 5.26587 5.32534 5.68933 5.32534 6.21028C5.32534 6.73123 4.90533 7.15469 4.38862 7.15469ZM4.38862 5.56356C4.03505 5.56356 3.74717 5.8538 3.74717 6.21028C3.74717 6.56676 4.03505 6.85701 4.38862 6.85701C4.7422 6.85701 5.03008 6.56676 5.03008 6.21028C5.03008 5.8538 4.7422 5.56356 4.38862 5.56356Z" fill="#1D1D1B"/>
</g>
<g id="Group_3">
<path id="Vector_7" d="M9.00286 10.4903C8.92166 10.4903 8.85522 10.4233 8.85522 10.3414V6.20951C8.85522 6.12765 8.92166 6.06067 9.00286 6.06067C9.08405 6.06067 9.15049 6.12765 9.15049 6.20951V10.3414C9.15049 10.4233 9.08405 10.4903 9.00286 10.4903Z" fill="#1D1D1B"/>
<path id="Vector_8" d="M9.82221 6.35836H9.00286C8.92166 6.35836 8.85522 6.29138 8.85522 6.20951C8.85522 6.12765 8.92166 6.06067 9.00286 6.06067H9.82221C9.90341 6.06067 9.96984 6.12765 9.96984 6.20951C9.96984 6.29138 9.90341 6.35836 9.82221 6.35836Z" fill="#1D1D1B"/>
<path id="Vector_9" d="M10.6113 7.15469C10.0946 7.15469 9.67456 6.73123 9.67456 6.21028C9.67456 5.68933 10.0946 5.26587 10.6113 5.26587C11.128 5.26587 11.548 5.68933 11.548 6.21028C11.548 6.73123 11.128 7.15469 10.6113 7.15469ZM10.6113 5.56356C10.2577 5.56356 9.96982 5.8538 9.96982 6.21028C9.96982 6.56676 10.2577 6.85701 10.6113 6.85701C10.9649 6.85701 11.2527 6.56676 11.2527 6.21028C11.2527 5.8538 10.9649 5.56356 10.6113 5.56356Z" fill="#1D1D1B"/>
</g>
<path id="Vector_10" d="M7.54573 6.4202C7.02902 6.4202 6.60901 5.99674 6.60901 5.47578C6.60901 4.95483 7.02902 4.53137 7.54573 4.53137C8.06244 4.53137 8.48245 4.95483 8.48245 5.47578C8.48245 5.99674 8.06244 6.4202 7.54573 6.4202ZM7.54573 4.82906C7.19215 4.82906 6.90427 5.1193 6.90427 5.47578C6.90427 5.83227 7.19215 6.12251 7.54573 6.12251C7.89931 6.12251 8.18719 5.83227 8.18719 5.47578C8.18719 5.1193 7.89931 4.82906 7.54573 4.82906Z" fill="#1D1D1B"/>
</g>
</g>
</g>
<defs>
<clipPath id="clip0_1_962">
<rect width="11" height="13" fill="white" transform="translate(2 1)"/>
</clipPath>
</defs>
</svg>
