<?xml version="1.0" encoding="UTF-8"?>
<svg xmlns="http://www.w3.org/2000/svg" viewBox="0 0 1200 1200">
  <defs>
    <style>
      .cls-1 {
        opacity: .94;
      }

      .cls-1, .cls-2, .cls-3, .cls-4, .cls-5, .cls-6, .cls-7, .cls-8, .cls-9, .cls-10, .cls-11, .cls-12, .cls-13, .cls-14, .cls-15, .cls-16, .cls-17, .cls-18, .cls-19, .cls-20, .cls-21, .cls-22, .cls-23, .cls-24, .cls-25, .cls-26, .cls-27, .cls-28, .cls-29, .cls-30, .cls-31, .cls-32, .cls-33, .cls-34, .cls-35, .cls-36, .cls-37, .cls-38, .cls-39, .cls-40, .cls-41, .cls-42, .cls-43, .cls-44, .cls-45, .cls-46, .cls-47, .cls-48, .cls-49, .cls-50, .cls-51, .cls-52 {
        fill: none;
      }

      .cls-1, .cls-2, .cls-3, .cls-4, .cls-5, .cls-6, .cls-8, .cls-9, .cls-10, .cls-11, .cls-12, .cls-13, .cls-14, .cls-15, .cls-16, .cls-17, .cls-18, .cls-19, .cls-20, .cls-21, .cls-22, .cls-23, .cls-24, .cls-25, .cls-26, .cls-27, .cls-28, .cls-29, .cls-30, .cls-31, .cls-32, .cls-33, .cls-34, .cls-35, .cls-36, .cls-37, .cls-38, .cls-39, .cls-40, .cls-41, .cls-42, .cls-43, .cls-44, .cls-45, .cls-46, .cls-47, .cls-48, .cls-49, .cls-50, .cls-51, .cls-52 {
        stroke-miterlimit: 10;
        stroke-width: 1.37px;
      }

      .cls-1, .cls-11, .cls-12, .cls-13, .cls-16, .cls-17, .cls-18, .cls-24, .cls-28, .cls-31, .cls-38, .cls-39, .cls-43, .cls-44, .cls-45, .cls-46, .cls-48 {
        stroke: #1ca4e9;
      }

      .cls-1, .cls-11, .cls-12, .cls-13, .cls-16, .cls-17, .cls-18, .cls-24, .cls-28, .cls-31, .cls-38, .cls-39, .cls-43, .cls-44, .cls-45, .cls-48 {
        mix-blend-mode: hard-light;
      }

      .cls-2, .cls-3 {
        opacity: .15;
      }

      .cls-2, .cls-5, .cls-6, .cls-9, .cls-14, .cls-15, .cls-19, .cls-23, .cls-26, .cls-27, .cls-29, .cls-37, .cls-40, .cls-41, .cls-42, .cls-47, .cls-52 {
        stroke: #2aefff;
      }

      .cls-3 {
        stroke: #7238f0;
      }

      .cls-4 {
        stroke: #5b05e5;
      }

      .cls-4, .cls-11 {
        opacity: .56;
      }

      .cls-5 {
        opacity: .28;
      }

      .cls-6, .cls-13 {
        opacity: .12;
      }

      .cls-7 {
        isolation: isolate;
      }

      .cls-8 {
        stroke: #6a25ec;
      }

      .cls-8, .cls-9 {
        opacity: .3;
      }

      .cls-10 {
        stroke: #7033ef;
      }

      .cls-10, .cls-38 {
        opacity: .19;
      }

      .cls-12 {
        opacity: .06;
      }

      .cls-14 {
        opacity: .2;
      }

      .cls-15 {
        opacity: .35;
      }

      .cls-16 {
        opacity: .44;
      }

      .cls-17 {
        opacity: .69;
      }

      .cls-18 {
        opacity: .5;
      }

      .cls-19, .cls-20 {
        opacity: .07;
      }

      .cls-20 {
        stroke: #7741f2;
      }

      .cls-21 {
        opacity: .45;
        stroke: #6213e8;
      }

      .cls-22 {
        stroke: #661cea;
      }

      .cls-22, .cls-23, .cls-43 {
        opacity: .38;
      }

      .cls-24 {
        opacity: .75;
      }

      .cls-25 {
        stroke: #7b4af4;
      }

      .cls-25, .cls-26, .cls-48 {
        opacity: 0;
      }

      .cls-27 {
        opacity: .33;
      }

      .cls-28 {
        opacity: .88;
      }

      .cls-29 {
        opacity: .4;
      }

      .cls-30 {
        opacity: .49;
        stroke: #5f0ee7;
      }

      .cls-31, .cls-42 {
        opacity: .25;
      }

      .cls-32 {
        opacity: .6;
        stroke: #5900e4;
      }

      .cls-33 {
        opacity: .11;
        stroke: #753cf1;
      }

      .cls-34 {
        opacity: .41;
        stroke: #6417e9;
      }

      .cls-35 {
        opacity: .53;
        stroke: #5d09e6;
      }

      .cls-36 {
        stroke: #6e2eee;
      }

      .cls-36, .cls-37 {
        opacity: .23;
      }

      .cls-39 {
        opacity: .62;
      }

      .cls-40 {
        opacity: .1;
      }

      .cls-41 {
        opacity: .18;
      }

      .cls-44 {
        opacity: .31;
      }

      .cls-45 {
        opacity: .81;
      }

      .cls-47 {
        opacity: .05;
      }

      .cls-49 {
        opacity: .26;
        stroke: #6c2aed;
      }

      .cls-50 {
        opacity: .04;
        stroke: #7945f3;
      }

      .cls-51 {
        opacity: .34;
        stroke: #6820eb;
      }

      .cls-52 {
        opacity: .03;
      }
    </style>
  </defs>
  <g class="cls-7">
    <g id="Background">
      <g>
        <g>
          <path class="cls-25" d="m795.81,554.96c404.4,132.92-210.5,563.05-249.48,270.9-19.52-146.3-292.31-30.98-292.31-178.57s124.55-123.76,246.83-206.41c152.71-103.22,190.46,79.74,294.96,114.08Z"/>
          <path class="cls-50" d="m798.76,547.81c380.97,140.47-194.75,562.48-252.31,284.28-28.64-138.42-296.98-52.79-288.91-195.61,7.98-142.78,128.92-130.48,248.86-200.45,149.39-87.94,191.48,74.58,292.36,111.78Z"/>
          <path class="cls-20" d="m801.71,540.66c357.41,147.38-178.78,562.25-255.14,297.67-37.64-130.41-301.65-74.59-285.51-212.65,15.97-137.96,133.53-136.72,250.9-194.49,146.37-72.05,192.4,69.32,289.76,109.47Z"/>
          <path class="cls-33" d="m804.66,533.5c333.77,153.58-162.5,562.31-257.97,311.05-46.46-122.27-306.32-96.4-282.12-229.69,23.95-133.15,137.96-143.18,252.93-188.53,143.13-56.44,193.22,63.94,287.16,107.16Z"/>
          <path class="cls-3" d="m807.61,526.35c310.1,158.99-145.8,562.61-260.8,324.43-55.06-114.04-310.99-118.2-278.72-246.73,31.93-128.33,142.32-149.65,254.96-182.57,139.81-40.85,193.95,58.4,284.56,104.86Z"/>
          <path class="cls-10" d="m810.56,519.19c286.49,163.53-128.62,563.04-263.63,337.82-63.41-105.77-315.66-140.01-275.32-263.76,39.91-123.52,146.63-156.15,256.99-176.6,136.41-25.28,194.62,52.7,281.96,102.55Z"/>
          <path class="cls-36" d="m813.51,512.04c263.03,167.17-110.92,563.43-266.47,351.2-71.49-97.54-320.33-161.81-271.93-280.8,47.9-118.71,150.87-162.69,259.03-170.64,132.94-9.78,195.26,46.79,279.36,100.25Z"/>
          <path class="cls-49" d="m816.46,504.88c239.83,169.86-92.69,563.64-269.3,364.58-79.32-89.4-325.01-183.62-268.53-297.84,55.88-113.89,155.07-169.3,261.06-164.68,129.41,5.63,195.9,40.67,276.76,97.94Z"/>
          <path class="cls-8" d="m819.41,497.73c217,171.61-74.01,563.52-272.13,377.96-86.94-81.42-329.68-205.42-265.13-314.88,63.86-109.08,159.24-176,263.09-158.72,125.86,20.93,196.6,34.29,274.16,95.63Z"/>
          <path class="cls-51" d="m822.36,490.57c194.67,172.46-54.97,562.94-274.96,391.35-94.41-73.64-334.35-227.23-261.74-331.92,71.84-104.26,163.43-182.79,265.13-152.76,122.32,36.12,197.43,27.65,271.57,93.33Z"/>
          <path class="cls-22" d="m825.31,483.42c172.96,172.49-35.71,561.84-277.79,404.73-101.79-66.06-339.02-249.03-258.34-348.95,79.83-99.45,167.66-189.67,267.16-146.8,118.84,51.2,198.47,20.71,268.97,91.02Z"/>
          <path class="cls-34" d="m828.26,476.26c151.99,171.82-16.37,560.21-280.62,418.11-109.16-58.7-343.69-270.84-254.94-365.99,87.81-94.63,171.96-196.61,269.19-140.84,115.44,66.22,199.82,13.49,266.37,88.72Z"/>
          <path class="cls-21" d="m831.21,469.11c131.87,170.65,2.94,558.09-283.45,431.5-116.56-51.52-348.36-292.64-251.54-383.03,95.79-89.82,176.34-203.59,271.23-134.88,112.13,81.2,201.61,5.97,263.77,86.41Z"/>
          <path class="cls-30" d="m834.16,461.96c112.69,169.19,22.13,555.54-286.28,444.88-124.02-44.5-353.03-314.45-248.15-400.07,103.77-85,180.8-210.57,273.26-128.92,108.91,96.17,203.96-1.79,261.17,84.1Z"/>
          <path class="cls-35" d="m837.11,454.8c94.51,167.74,41.13,552.64-289.11,458.26-131.58-37.6-357.71-336.25-244.75-417.11,111.76-80.19,185.32-217.53,275.29-122.96,105.76,111.17,206.99-9.74,258.57,81.8Z"/>
          <path class="cls-4" d="m840.06,447.65c77.34,166.62,59.92,549.48-291.94,471.65-139.24-30.8-362.38-358.06-241.35-434.14,119.74-75.38,189.88-224.48,277.33-116.99,102.67,126.19,210.82-17.78,255.97,79.49Z"/>
          <path class="cls-32" d="m843.01,440.49c61.13,166.16,78.48,546.14-294.77,485.03-147-24.07-367.05-379.87-237.96-451.18,127.72-70.56,194.48-231.39,279.36-111.03,99.62,141.25,215.5-25.76,253.37,77.19Z"/>
        </g>
        <g>
          <path class="cls-46" d="m643.33,939.41C370.75,1493.63,28.43,504.14,389.08,515.57c180.59,5.72,119.11-415.71,295.78-381.44,176.67,34.27,113.19,208.93,177.81,405.03,80.7,244.9-148.89,257.04-219.33,400.25Z"/>
          <path class="cls-1" d="m651.07,945.34C375.6,1464.68,32.16,533,381.59,514.3c173.6-9.29,146.52-417.41,315.22-372.57,168.67,44.7,120.01,216.82,170.1,406.59,63.34,236.55-143.12,259.93-215.84,397.03Z"/>
          <path class="cls-28" d="m658.81,951.27c-277.65,484.42-623.53-389.11-284.71-438.24,166.34-24.12,173.93-419.1,334.66-363.7,160.66,55.13,126.16,224.83,162.4,408.15,45.14,228.37-137.22,262.72-212.35,393.8Z"/>
          <path class="cls-45" d="m666.54,957.2C387.51,1406.71,37.84,591.81,366.61,511.75c158.84-38.68,201.35-420.8,354.1-354.83,152.66,65.56,132.66,232.71,154.69,409.7,27.38,220.01-131.17,265.42-208.86,390.58Z"/>
          <path class="cls-24" d="m674.28,963.13C394.74,1377.8,40,622.1,359.12,510.48c151.18-52.88,228.76-422.5,373.54-345.96,144.66,75.99,139.19,240.52,146.98,411.26,9.66,211.59-124.94,268.05-205.37,387.35Z"/>
          <path class="cls-17" d="m682.02,969.06C402.95,1349.06,41.97,653.16,351.63,509.21c143.45-66.69,256.17-424.19,392.99-337.09,136.65,86.42,145.77,248.29,139.28,412.82-8.01,203.09-118.52,270.62-201.88,384.13Z"/>
          <path class="cls-39" d="m689.75,974.99C412.2,1320.6,44,685.01,344.14,507.93c135.77-80.1,283.58-425.89,412.43-328.22,128.65,96.86,152.4,256,131.57,414.38-25.59,194.54-111.86,273.16-198.39,380.9Z"/>
          <path class="cls-11" d="m697.49,980.92C422.57,1292.55,46.32,717.6,336.65,506.66c128.23-93.17,310.99-427.58,431.87-319.35,120.65,107.29,159.13,263.69,123.87,415.93-43.06,185.95-104.94,275.71-194.9,377.68Z"/>
          <path class="cls-18" d="m705.22,986.85c-271.15,278.2-656.1-236.03-376.06-481.46,120.9-105.96,338.41-429.28,451.31-310.48,112.64,117.72,165.94,271.37,116.16,417.49-60.42,177.36-97.74,278.34-191.41,374.45Z"/>
          <path class="cls-16" d="m712.96,992.78c-266.25,245.5-660.42-208.3-391.29-488.66,113.82-118.58,365.82-430.98,470.75-301.61,104.64,128.15,172.86,279.07,108.46,419.05-77.66,168.8-90.21,281.13-187.92,371.23Z"/>
          <path class="cls-43" d="m720.7,998.71c-260.28,213.68-664.09-180.3-406.51-495.87,107.01-131.1,393.23-432.67,490.19-292.74,96.64,138.58,179.86,286.83,100.75,420.61-94.8,160.3-82.34,284.19-184.43,368Z"/>
          <path class="cls-44" d="m728.43,1004.64c-253.38,182.94-667.14-152.19-421.74-503.07,100.43-143.6,420.64-434.37,509.64-283.87,88.64,149.01,186.93,294.67,93.04,422.16-111.85,151.9-74.12,287.66-180.94,364.78Z"/>
          <path class="cls-31" d="m736.17,1010.57c-245.77,153.43-669.63-124.09-436.96-510.27,94.07-156.13,448.05-436.06,529.08-275,80.63,159.44,194.04,302.59,85.34,423.72-128.87,143.6-65.55,291.7-177.45,361.55Z"/>
          <path class="cls-38" d="m743.9,1016.49c-237.76,125.31-671.65-96.11-452.19-517.47,87.88-168.73,475.47-437.76,548.52-266.13,72.63,169.88,201.16,310.61,77.63,425.28-145.87,135.4-56.69,296.52-173.96,358.33Z"/>
          <path class="cls-13" d="m751.64,1022.42c-229.77,98.67-673.29-68.29-467.41-524.68,81.84-181.42,502.88-439.45,567.96-257.26,64.63,180.31,208.27,318.71,69.93,426.84-162.88,127.31-47.62,302.35-170.47,355.1Z"/>
          <path class="cls-12" d="m759.38,1028.35c-222.33,73.55-674.63-40.67-482.64-531.88,75.91-194.21,530.29-441.15,587.4-248.39,56.62,190.74,215.35,326.88,62.22,428.39-179.94,119.29-38.52,309.38-166.98,351.88Z"/>
          <path class="cls-48" d="m767.11,1034.28c-216.05,49.87-675.75-13.25-497.87-539.08,70.06-207.09,557.7-442.85,606.84-239.52,48.62,201.17,222.4,335.09,54.51,429.95-197.04,111.33-29.64,317.76-163.49,348.65Z"/>
        </g>
        <g>
          <path class="cls-26" d="m340.17,793.6c-631.87-53.25,136.32-845.79,282.32-454.72,73.11,195.83,436.9-51.45,481.86,152.47,44.96,203.92-144.44,211.14-298.08,364.76-191.88,191.85-302.81-48.75-466.1-62.52Z"/>
          <path class="cls-52" d="m338.04,804.44c-600.21-71.27,113.42-840,282.38-474.12,84.03,181.98,450.38-22.83,482.09,177.11,31.82,199.84-148.78,221.85-302.87,357.18-191.68,169.67-302.82-41.31-461.59-60.17Z"/>
          <path class="cls-47" d="m335.9,815.27C-232.27,726.78,425.98-19.37,618.34,321.75c94.71,167.95,463.85,5.8,482.31,201.74,18.68,195.76-153.6,231.93-307.66,349.6-192.07,146.71-302.65-33.77-457.09-57.82Z"/>
          <path class="cls-19" d="m333.77,826.11C-202.02,721.32,399.9-3.51,616.27,313.18c105.08,153.8,477.32,34.42,482.53,226.38,5.54,191.68-158.09,242.28-312.45,342.02-192.06,124.1-302.32-26.08-452.59-55.47Z"/>
          <path class="cls-40" d="m331.63,836.94C-171.48,716.91,373.12,12.16,614.2,304.61c115.09,139.61,490.8,63.04,482.75,251.01-7.6,187.6-162.5,252.63-317.24,334.44-191.96,101.49-301.81-18.23-448.08-53.12Z"/>
          <path class="cls-6" d="m329.5,847.78c-470.22-134.09,16.08-819.92,282.63-551.74,124.7,125.47,504.27,91.66,482.98,275.65-20.74,183.53-166.83,263-322.03,326.86-191.74,78.9-301.16-10.16-443.58-50.77Z"/>
          <path class="cls-2" d="m327.36,858.62c-437.22-146.86-10.09-814.81,282.69-571.14,133.94,111.47,517.75,120.28,483.2,300.28-33.88,179.45-171.06,273.41-326.82,319.28-191.41,56.37-300.4-1.85-439.07-48.43Z"/>
          <path class="cls-41" d="m325.23,869.45C-79.02,711.21,288.3,60.24,607.98,278.91c142.86,97.72,531.22,148.9,483.42,324.92-47.02,175.37-175.21,283.9-331.61,311.7-190.98,33.95-299.55,6.78-434.57-46.08Z"/>
          <path class="cls-14" d="m323.09,880.29C-48.35,712.1,258.82,77.35,605.91,270.34c151.55,84.27,544.69,177.52,483.65,349.55-60.16,171.29-179.3,294.51-336.4,304.12-190.48,11.66-298.7,15.75-430.07-43.73Z"/>
          <path class="cls-37" d="m320.96,891.12C-18.05,714.43,229.03,95.23,603.84,261.78c160.12,71.15,558.17,206.14,483.87,374.19-73.3,167.22-183.38,305.24-341.18,296.54-189.96-10.47-297.92,25.15-425.56-41.38Z"/>
          <path class="cls-42" d="m318.82,901.96C11.68,718.17,199.14,113.91,601.77,253.21c168.65,58.35,571.64,234.76,484.09,398.82-86.44,163.14-187.5,316.1-345.97,288.96-189.49-32.45-297.32,35.01-421.06-39.03Z"/>
          <path class="cls-5" d="m316.69,912.8C40.62,723.18,169.34,133.34,599.7,244.64c177.24,45.84,585.11,263.38,484.31,423.46-99.58,159.06-191.68,327.07-350.76,281.38-189.09-54.3-297.04,45.4-416.56-36.69Z"/>
          <path class="cls-9" d="m314.55,923.63C68.54,729.27,139.76,153.42,597.62,236.07c185.94,33.57,598.59,292,484.54,448.09-112.72,154.98-195.95,338.11-355.55,273.8-188.8-76.07-297.27,56.35-412.05-34.34Z"/>
          <path class="cls-27" d="m312.42,934.47C95.22,736.13,110.5,174.02,595.55,227.51c194.78,21.48,612.06,320.62,484.76,472.73-125.86,150.9-200.32,349.19-360.34,266.22-188.63-97.8-298.19,67.87-407.55-31.99Z"/>
          <path class="cls-15" d="m310.28,945.3C120.45,743.39,81.59,195.02,593.48,218.94c203.79,9.52,625.54,349.24,484.98,497.37-139.01,146.83-204.78,360.28-365.13,258.64-188.57-119.52-300.04,79.91-403.05-29.64Z"/>
          <path class="cls-23" d="m308.15,956.14C144.06,750.57,53.06,216.29,591.41,210.37c212.97-2.34,639.01,377.86,485.2,522-152.15,142.75-209.32,371.35-369.92,251.06-188.6-141.26-303.03,92.38-398.54-27.29Z"/>
          <path class="cls-29" d="m306.01,966.98C166,757.12,24.88,237.73,589.34,201.81c222.31-14.15,652.48,406.48,485.43,546.64-165.29,138.67-213.92,382.4-374.71,243.48-188.71-163.04-307.3,105.07-394.04-24.95Z"/>
        </g>
      </g>
    </g>
  </g>
</svg>