<svg width="712" height="1000" viewBox="0 0 712 1000" fill="none" xmlns="http://www.w3.org/2000/svg">
<rect width="712" height="1000" fill="#071324"/>
<mask id="mask0_1301_18717" style="mask-type:alpha" maskUnits="userSpaceOnUse" x="0" y="0" width="712" height="1000">
<rect width="712" height="1000" fill="#EAD9CC"/>
</mask>
<g mask="url(#mask0_1301_18717)">
<g filter="url(#filter0_d_1301_18717)">
<rect width="838.858" height="622.029" rx="24" transform="matrix(0.902585 -0.430511 0.707107 0.707107 -237 500.139)" fill="#0F1E34"/>
</g>
<rect width="185.66" height="391.648" rx="8" transform="matrix(0.902585 -0.430511 0.707107 0.707107 -64.9258 616.209)" fill="#213450"/>
<rect width="525.811" height="299.495" rx="8" transform="matrix(0.902585 -0.430511 0.707107 0.707107 36.3818 412.203)" fill="#213450"/>
<rect width="298.14" height="113.835" rx="8" transform="matrix(0.902585 -0.430511 0.707107 0.707107 179.771 512.232)" fill="#0F1E34"/>
<rect width="185.66" height="107.059" rx="8" transform="matrix(0.902585 -0.430511 0.707107 0.707107 -170.334 510.801)" fill="#213450"/>
<path fill-rule="evenodd" clip-rule="evenodd" d="M72.3792 679.444C70.8171 677.882 71.1672 675.844 73.1611 674.893L139.331 643.332C141.324 642.381 144.207 642.876 145.769 644.438L149.695 648.364C151.257 649.926 150.907 651.964 148.913 652.915L82.7437 684.476C80.7498 685.427 77.867 684.931 76.3049 683.369L72.3792 679.444Z" fill="#465E82"/>
<path fill-rule="evenodd" clip-rule="evenodd" d="M217.076 824.141C215.514 822.579 215.864 820.542 217.858 819.59L284.028 788.029C286.022 787.078 288.904 787.574 290.467 789.136L294.392 793.061C295.954 794.623 295.604 796.661 293.61 797.612L227.441 829.173C225.447 830.124 222.564 829.629 221.002 828.067L217.076 824.141Z" fill="#465E82"/>
<path fill-rule="evenodd" clip-rule="evenodd" d="M197.911 804.975C196.349 803.413 196.699 801.375 198.693 800.424L264.863 768.863C266.857 767.912 269.739 768.408 271.302 769.97L275.227 773.895C276.789 775.457 276.439 777.495 274.445 778.446L208.276 810.007C206.282 810.958 203.399 810.463 201.837 808.901L197.911 804.975Z" fill="#465E82"/>
<path fill-rule="evenodd" clip-rule="evenodd" d="M91.5452 698.61C89.9831 697.048 90.3332 695.01 92.3271 694.059L158.497 662.498C160.49 661.547 163.373 662.042 164.935 663.604L168.861 667.53C170.423 669.092 170.073 671.13 168.079 672.081L101.91 703.642C99.9158 704.593 97.033 704.098 95.471 702.535L91.5452 698.61Z" fill="#465E82"/>
<path fill-rule="evenodd" clip-rule="evenodd" d="M236.242 843.307C234.679 841.745 235.029 839.708 237.023 838.756L303.193 807.195C305.187 806.244 308.07 806.74 309.632 808.302L313.557 812.227C315.119 813.789 314.769 815.827 312.775 816.778L246.606 848.339C244.612 849.29 241.729 848.795 240.167 847.233L236.242 843.307Z" fill="#465E82"/>
<path fill-rule="evenodd" clip-rule="evenodd" d="M585.784 423.241C584.221 421.678 584.571 419.641 586.565 418.69L652.735 387.129C654.729 386.178 657.612 386.673 659.174 388.235L663.099 392.161C664.661 393.723 664.311 395.76 662.317 396.711L596.148 428.273C594.154 429.224 591.271 428.728 589.709 427.166L585.784 423.241Z" fill="#465E82"/>
<path fill-rule="evenodd" clip-rule="evenodd" d="M564.701 402.159C563.139 400.596 563.489 398.559 565.483 397.608L631.653 366.047C633.647 365.096 636.529 365.591 638.092 367.153L642.017 371.079C643.579 372.641 643.229 374.678 641.235 375.629L575.066 407.191C573.072 408.142 570.189 407.646 568.627 406.084L564.701 402.159Z" fill="#465E82"/>
<path fill-rule="evenodd" clip-rule="evenodd" d="M544.578 382.035C543.016 380.473 543.366 378.436 545.36 377.485L611.53 345.924C613.524 344.973 616.406 345.468 617.969 347.03L621.894 350.956C623.456 352.518 623.106 354.555 621.112 355.506L554.943 387.068C552.949 388.019 550.066 387.523 548.504 385.961L544.578 382.035Z" fill="#465E82"/>
<path fill-rule="evenodd" clip-rule="evenodd" d="M524.454 361.912C522.892 360.35 523.242 358.313 525.236 357.362L591.406 325.801C593.4 324.85 596.282 325.345 597.844 326.907L601.77 330.833C603.332 332.395 602.982 334.432 600.988 335.383L534.819 366.945C532.825 367.896 529.942 367.4 528.38 365.838L524.454 361.912Z" fill="#465E82"/>
<rect width="13.5518" height="13.5518" rx="5" transform="matrix(0.902585 -0.430511 0.707107 0.707107 45.0879 688.283)" fill="#465E82"/>
<rect width="13.5518" height="13.5518" rx="5" transform="matrix(0.902585 -0.430511 0.707107 0.707107 189.785 832.98)" fill="#465E82"/>
<rect width="13.5518" height="13.5518" rx="5" transform="matrix(0.902585 -0.430511 0.707107 0.707107 170.62 813.816)" fill="#465E82"/>
<rect width="13.5518" height="13.5518" rx="5" transform="matrix(0.902585 -0.430511 0.707107 0.707107 64.2529 707.449)" fill="#465E82"/>
<rect width="13.5518" height="13.5518" rx="5" transform="matrix(0.902585 -0.430511 0.707107 0.707107 208.95 852.146)" fill="#465E82"/>
<rect width="13.5518" height="13.5518" rx="5" transform="matrix(0.902585 -0.430511 0.707107 0.707107 558.491 432.08)" fill="#465E82"/>
<rect width="13.5518" height="13.5518" rx="5" transform="matrix(0.902585 -0.430511 0.707107 0.707107 537.409 410.998)" fill="#465E82"/>
<rect width="13.5518" height="13.5518" rx="5" transform="matrix(0.902585 -0.430511 0.707107 0.707107 517.286 390.875)" fill="#465E82"/>
<rect width="13.5518" height="13.5518" rx="5" transform="matrix(0.902585 -0.430511 0.707107 0.707107 497.163 370.752)" fill="#465E82"/>
<path fill-rule="evenodd" clip-rule="evenodd" d="M-14.3708 628.825C-15.9329 627.262 -15.5828 625.225 -13.5889 624.274L94.1683 572.877C96.1622 571.925 99.0449 572.421 100.607 573.983L109.324 582.7C110.886 584.262 110.536 586.299 108.542 587.25L0.785007 638.648C-1.20893 639.599 -4.09166 639.104 -5.65376 637.542L-14.3708 628.825Z" fill="#465E82"/>
<path fill-rule="evenodd" clip-rule="evenodd" d="M90.8704 421.528C89.3083 419.966 89.6584 417.928 91.6523 416.977L433.035 254.146C435.029 253.195 437.911 253.69 439.473 255.253L448.19 263.97C449.752 265.532 449.402 267.569 447.408 268.52L106.026 431.351C104.032 432.302 101.15 431.807 99.5875 430.245L90.8704 421.528Z" fill="#465E82"/>
<path fill-rule="evenodd" clip-rule="evenodd" d="M8.17203 651.367C7.39098 650.586 7.56601 649.568 8.56298 649.092L69.7805 619.893C70.7775 619.417 72.2189 619.665 72.9999 620.446L79.7541 627.2C80.5351 627.981 80.3601 629 79.3631 629.475L18.1456 658.675C17.1486 659.15 15.7072 658.903 14.9262 658.121L8.17203 651.367Z" fill="#0F1E34"/>
<path fill-rule="evenodd" clip-rule="evenodd" d="M113.413 444.069C112.632 443.287 112.807 442.269 113.804 441.793L363.39 322.747C364.387 322.272 365.828 322.519 366.609 323.3L373.363 330.054C374.144 330.836 373.969 331.854 372.972 332.33L123.387 451.376C122.39 451.851 120.948 451.604 120.167 450.823L113.413 444.069Z" fill="#0F1E34"/>
<path fill-rule="evenodd" clip-rule="evenodd" d="M132.578 463.235C131.797 462.453 131.972 461.435 132.969 460.959L250.453 404.923C251.449 404.447 252.891 404.695 253.672 405.476L260.426 412.23C261.207 413.011 261.032 414.03 260.035 414.505L142.552 470.542C141.555 471.017 140.113 470.77 139.332 469.989L132.578 463.235Z" fill="#0F1E34"/>
<path fill-rule="evenodd" clip-rule="evenodd" d="M91.5402 734.736C90.7591 733.955 90.9342 732.937 91.9311 732.461L153.149 703.262C154.146 702.786 155.587 703.034 156.368 703.815L163.122 710.569C163.903 711.35 163.728 712.369 162.731 712.845L101.514 742.044C100.517 742.519 99.0754 742.272 98.2943 741.491L91.5402 734.736Z" fill="#0F1E34"/>
<path fill-rule="evenodd" clip-rule="evenodd" d="M127.954 771.151C127.173 770.369 127.348 769.351 128.345 768.875L214.026 728.008C215.023 727.532 216.464 727.78 217.246 728.561L224 735.315C224.781 736.096 224.606 737.115 223.609 737.59L137.928 778.458C136.931 778.933 135.489 778.686 134.708 777.905L127.954 771.151Z" fill="#0F1E34"/>
<path fill-rule="evenodd" clip-rule="evenodd" d="M25.4201 668.615C24.639 667.834 24.8141 666.816 25.811 666.34L109.046 626.639C110.043 626.164 111.484 626.411 112.265 627.192L119.019 633.947C119.8 634.728 119.625 635.746 118.628 636.222L35.3936 675.923C34.3966 676.398 32.9553 676.151 32.1742 675.37L25.4201 668.615Z" fill="#0F1E34"/>
<path fill-rule="evenodd" clip-rule="evenodd" d="M109.747 752.944C108.966 752.162 109.141 751.144 110.138 750.668L216.613 699.882C217.61 699.407 219.051 699.655 219.832 700.436L226.587 707.19C227.368 707.971 227.193 708.989 226.196 709.465L119.721 760.251C118.724 760.726 117.282 760.479 116.501 759.698L109.747 752.944Z" fill="#0F1E34"/>
<path fill-rule="evenodd" clip-rule="evenodd" d="M269.346 575.657C268.349 576.132 266.908 575.884 266.127 575.103L257.724 566.7C256.942 565.919 257.118 564.9 258.114 564.425L266.312 560.515C267.309 560.039 268.75 560.287 269.531 561.068L277.935 569.471C278.716 570.252 278.541 571.271 277.544 571.747L269.346 575.657Z" fill="#465E82"/>
<path fill-rule="evenodd" clip-rule="evenodd" d="M344.916 539.612C343.92 540.087 342.478 539.839 341.697 539.058L333.294 530.655C332.513 529.874 332.688 528.855 333.685 528.38L341.882 524.47C342.879 523.994 344.321 524.242 345.102 525.023L353.505 533.426C354.286 534.207 354.111 535.226 353.114 535.702L344.916 539.612Z" fill="#465E82"/>
<path fill-rule="evenodd" clip-rule="evenodd" d="M420.486 503.567C419.489 504.042 418.047 503.795 417.266 503.014L391.08 476.827C390.299 476.046 390.474 475.027 391.471 474.552L399.668 470.642C400.665 470.166 402.106 470.414 402.888 471.195L429.074 497.381C429.855 498.163 429.68 499.181 428.683 499.657L420.486 503.567Z" fill="#465E82"/>
<path fill-rule="evenodd" clip-rule="evenodd" d="M288.238 566.647C287.241 567.122 285.799 566.875 285.018 566.094L269.127 550.203C268.346 549.421 268.521 548.403 269.518 547.927L277.716 544.017C278.713 543.542 280.154 543.789 280.935 544.57L296.826 560.462C297.607 561.243 297.432 562.261 296.435 562.737L288.238 566.647Z" fill="#465E82"/>
<path fill-rule="evenodd" clip-rule="evenodd" d="M363.809 530.6C362.812 531.075 361.371 530.828 360.59 530.047L340.955 510.412C340.174 509.631 340.349 508.612 341.346 508.137L349.543 504.227C350.54 503.751 351.981 503.999 352.763 504.78L372.398 524.415C373.179 525.196 373.004 526.214 372.007 526.69L363.809 530.6Z" fill="#465E82"/>
<path fill-rule="evenodd" clip-rule="evenodd" d="M439.378 494.557C438.381 495.032 436.94 494.785 436.159 494.004L420.268 478.113C419.487 477.332 419.662 476.313 420.659 475.837L428.856 471.927C429.853 471.452 431.295 471.7 432.076 472.481L447.967 488.372C448.748 489.153 448.573 490.171 447.576 490.647L439.378 494.557Z" fill="#465E82"/>
<path fill-rule="evenodd" clip-rule="evenodd" d="M307.131 557.635C306.134 558.111 304.693 557.863 303.912 557.082L295.509 548.679C294.728 547.898 294.903 546.879 295.9 546.403L304.097 542.493C305.094 542.018 306.535 542.266 307.316 543.047L315.72 551.45C316.501 552.231 316.326 553.25 315.329 553.725L307.131 557.635Z" fill="#465E82"/>
<path fill-rule="evenodd" clip-rule="evenodd" d="M382.702 521.59C381.705 522.066 380.263 521.818 379.482 521.037L364.995 506.55C364.214 505.769 364.389 504.75 365.386 504.275L373.584 500.365C374.581 499.889 376.022 500.137 376.803 500.918L391.29 515.405C392.071 516.186 391.896 517.205 390.899 517.68L382.702 521.59Z" fill="#465E82"/>
<path fill-rule="evenodd" clip-rule="evenodd" d="M458.271 485.545C457.274 486.021 455.833 485.773 455.052 484.992L431.205 461.145C430.424 460.364 430.599 459.345 431.596 458.87L439.793 454.96C440.79 454.484 442.232 454.732 443.013 455.513L466.859 479.36C467.64 480.141 467.465 481.16 466.468 481.635L458.271 485.545Z" fill="#465E82"/>
<path fill-rule="evenodd" clip-rule="evenodd" d="M477.164 476.534C476.167 477.009 474.725 476.761 473.944 475.98L445.417 447.454C444.636 446.673 444.811 445.654 445.808 445.178L454.006 441.268C455.003 440.793 456.444 441.041 457.225 441.822L485.752 470.348C486.533 471.129 486.358 472.148 485.361 472.624L477.164 476.534Z" fill="#465E82"/>
<path fill-rule="evenodd" clip-rule="evenodd" d="M326.023 548.623C325.026 549.099 323.585 548.851 322.804 548.07L298.021 523.287C297.24 522.506 297.415 521.488 298.412 521.012L306.609 517.102C307.606 516.627 309.048 516.874 309.829 517.655L334.611 542.438C335.392 543.219 335.217 544.238 334.22 544.713L326.023 548.623Z" fill="#465E82"/>
<path fill-rule="evenodd" clip-rule="evenodd" d="M401.592 512.578C400.595 513.054 399.154 512.806 398.373 512.025L367.974 481.627C367.193 480.846 367.368 479.827 368.365 479.351L376.563 475.441C377.56 474.966 379.001 475.213 379.782 475.995L410.181 506.393C410.962 507.174 410.787 508.193 409.79 508.668L401.592 512.578Z" fill="#465E82"/>
<path fill-rule="evenodd" clip-rule="evenodd" d="M496.055 467.522C495.058 467.997 493.617 467.75 492.836 466.969L455.417 429.55C454.636 428.769 454.811 427.75 455.808 427.275L464.006 423.365C465.003 422.889 466.444 423.137 467.225 423.918L504.644 461.337C505.425 462.118 505.25 463.136 504.253 463.612L496.055 467.522Z" fill="#465E82"/>
<rect width="525.811" height="42.0107" rx="8" transform="matrix(0.902585 -0.430511 0.707107 0.707107 389.021 764.842)" fill="#213450"/>
<path fill-rule="evenodd" clip-rule="evenodd" d="M453.571 751.709C452.79 750.928 452.965 749.909 453.962 749.434L523.742 716.151C524.739 715.675 526.18 715.923 526.962 716.704L533.716 723.458C534.497 724.239 534.322 725.258 533.325 725.733L463.545 759.016C462.548 759.492 461.107 759.244 460.326 758.463L453.571 751.709Z" fill="#465E82"/>
<path fill-rule="evenodd" clip-rule="evenodd" d="M618.699 672.947C617.918 672.166 618.093 671.148 619.09 670.672L757.368 604.717C758.364 604.242 759.806 604.489 760.587 605.271L767.341 612.025C768.122 612.806 767.947 613.824 766.95 614.3L628.673 680.255C627.676 680.73 626.235 680.483 625.454 679.702L618.699 672.947Z" fill="#465E82"/>
<circle cx="9.48627" cy="9.48627" r="9.48627" transform="matrix(0.902585 -0.430511 0.707107 0.707107 412.323 766.465)" fill="#465E82"/>
<rect width="525.811" height="42.0107" rx="8" transform="matrix(0.902585 -0.430511 0.707107 0.707107 350.69 726.512)" fill="#213450"/>
<path fill-rule="evenodd" clip-rule="evenodd" d="M415.241 713.379C414.46 712.598 414.635 711.579 415.632 711.104L453.61 692.99C454.607 692.514 456.048 692.762 456.829 693.543L463.583 700.297C464.364 701.078 464.189 702.097 463.192 702.572L425.215 720.686C424.218 721.162 422.777 720.914 421.996 720.133L415.241 713.379Z" fill="#465E82"/>
<path fill-rule="evenodd" clip-rule="evenodd" d="M580.369 634.617C579.588 633.836 579.763 632.818 580.76 632.342L659.102 594.975C660.099 594.499 661.541 594.747 662.322 595.528L669.076 602.282C669.857 603.063 669.682 604.082 668.685 604.558L590.343 641.925C589.346 642.4 587.905 642.153 587.123 641.372L580.369 634.617Z" fill="#465E82"/>
<circle cx="9.48627" cy="9.48627" r="9.48627" transform="matrix(0.902585 -0.430511 0.707107 0.707107 373.993 728.135)" fill="#465E82"/>
<rect width="525.811" height="42.0107" rx="8" transform="matrix(0.902585 -0.430511 0.707107 0.707107 312.36 688.182)" fill="#213450"/>
<path fill-rule="evenodd" clip-rule="evenodd" d="M376.911 675.049C376.13 674.268 376.305 673.249 377.302 672.774L431.181 647.075C432.178 646.599 433.619 646.847 434.4 647.628L441.154 654.382C441.935 655.163 441.76 656.182 440.763 656.658L386.885 682.356C385.888 682.832 384.446 682.584 383.665 681.803L376.911 675.049Z" fill="#465E82"/>
<path fill-rule="evenodd" clip-rule="evenodd" d="M542.039 596.287C541.258 595.506 541.433 594.488 542.43 594.012L729.634 504.72C730.631 504.245 732.072 504.492 732.853 505.274L739.608 512.028C740.389 512.809 740.214 513.827 739.217 514.303L552.013 603.595C551.016 604.07 549.574 603.822 548.793 603.041L542.039 596.287Z" fill="#465E82"/>
<circle cx="9.48627" cy="9.48627" r="9.48627" transform="matrix(0.902585 -0.430511 0.707107 0.707107 335.663 689.805)" fill="#465E82"/>
<g opacity="0.3" filter="url(#filter1_f_1301_18717)">
<rect width="502.773" height="42.0107" rx="8" transform="matrix(0.902585 -0.430511 0.707107 0.707107 311.581 640.432)" fill="#5772FF"/>
</g>
<rect width="525.811" height="42.0107" rx="8" transform="matrix(0.902585 -0.430511 0.707107 0.707107 280.613 631.143)" fill="#3959FF"/>
<path fill-rule="evenodd" clip-rule="evenodd" d="M345.164 618.01C344.383 617.229 344.558 616.21 345.555 615.735L425.12 577.784C426.117 577.309 427.559 577.556 428.34 578.337L435.094 585.091C435.875 585.872 435.7 586.891 434.703 587.367L355.138 625.317C354.141 625.793 352.699 625.545 351.918 624.764L345.164 618.01Z" fill="#8EA0FF"/>
<path fill-rule="evenodd" clip-rule="evenodd" d="M510.292 539.248C509.511 538.467 509.686 537.448 510.683 536.973L629.39 480.353C630.387 479.877 631.828 480.125 632.609 480.906L639.363 487.66C640.144 488.441 639.969 489.46 638.972 489.935L520.266 546.556C519.269 547.031 517.827 546.783 517.046 546.002L510.292 539.248Z" fill="#8EA0FF"/>
<circle cx="9.48628" cy="9.48628" r="9.48628" transform="matrix(0.902585 -0.430511 0.707107 0.707107 303.916 632.766)" fill="#8EA0FF"/>
<path d="M507.291 604.733C527.736 642.564 510.458 685.155 474.018 712.305" stroke="#3959FF" stroke-width="2" stroke-linecap="round" stroke-dasharray="6 6"/>
<path d="M497.597 605.671C499.242 601.37 500.933 597.546 497.537 591.917C500.458 594.346 507.15 597.535 515.219 600.418" stroke="#3959FF" stroke-width="2" stroke-linecap="round" stroke-dasharray="6 6"/>
<g filter="url(#filter2_d_1301_18717)">
<rect width="838.858" height="622.029" rx="24" transform="matrix(0.902585 -0.430511 0.707107 0.707107 -113 1146.14)" fill="#0F1E34"/>
</g>
<rect width="525.811" height="299.495" rx="8" transform="matrix(0.902585 -0.430511 0.707107 0.707107 160.382 1058.2)" fill="#213450"/>
<path fill-rule="evenodd" clip-rule="evenodd" d="M668.578 1028.04C667.016 1026.47 667.366 1024.44 669.36 1023.48L735.53 991.924C737.524 990.973 740.406 991.468 741.969 993.03L745.894 996.956C747.456 998.518 747.106 1000.56 745.112 1001.51L678.943 1033.07C676.949 1034.02 674.066 1033.52 672.504 1031.96L668.578 1028.04Z" fill="#465E82"/>
<path fill-rule="evenodd" clip-rule="evenodd" d="M648.454 1007.91C646.892 1006.35 647.242 1004.31 649.236 1003.36L715.406 971.801C717.4 970.85 720.282 971.345 721.844 972.907L725.77 976.833C727.332 978.395 726.982 980.432 724.988 981.383L658.819 1012.94C656.825 1013.9 653.942 1013.4 652.38 1011.84L648.454 1007.91Z" fill="#465E82"/>
<path fill-rule="evenodd" clip-rule="evenodd" d="M214.87 1067.53C213.308 1065.97 213.658 1063.93 215.652 1062.98L557.035 900.146C559.029 899.195 561.911 899.69 563.473 901.253L572.19 909.97C573.752 911.532 573.402 913.569 571.408 914.52L230.026 1077.35C228.032 1078.3 225.15 1077.81 223.587 1076.24L214.87 1067.53Z" fill="#465E82"/>
<path fill-rule="evenodd" clip-rule="evenodd" d="M237.413 1090.07C236.632 1089.29 236.807 1088.27 237.804 1087.79L487.39 968.747C488.387 968.272 489.828 968.519 490.609 969.3L497.363 976.054C498.144 976.836 497.969 977.854 496.972 978.33L247.387 1097.38C246.39 1097.85 244.948 1097.6 244.167 1096.82L237.413 1090.07Z" fill="#0F1E34"/>
<g filter="url(#filter3_d_1301_18717)">
<rect width="838.858" height="622.029" rx="24" transform="matrix(0.902585 -0.430511 0.707107 0.707107 -303 -180.861)" fill="#0F1E34"/>
</g>
<rect width="185.66" height="391.648" rx="8" transform="matrix(0.902585 -0.430511 0.707107 0.707107 -130.926 -64.791)" fill="#213450"/>
<path fill-rule="evenodd" clip-rule="evenodd" d="M6.37921 -1.55634C4.81711 -3.11844 5.16719 -5.15575 7.16112 -6.10681L73.3305 -37.668C75.3245 -38.6191 78.2072 -38.1237 79.7693 -36.5616L83.695 -32.6359C85.2571 -31.0738 84.907 -29.0365 82.9131 -28.0854L16.7437 3.47577C14.7498 4.42683 11.867 3.93149 10.3049 2.36939L6.37921 -1.55634Z" fill="#465E82"/>
<path fill-rule="evenodd" clip-rule="evenodd" d="M151.076 143.141C149.514 141.579 149.864 139.542 151.858 138.59L218.028 107.029C220.022 106.078 222.904 106.574 224.467 108.136L228.392 112.061C229.954 113.623 229.604 115.661 227.61 116.612L161.441 148.173C159.447 149.124 156.564 148.629 155.002 147.067L151.076 143.141Z" fill="#465E82"/>
<path fill-rule="evenodd" clip-rule="evenodd" d="M131.911 123.975C130.349 122.413 130.699 120.375 132.693 119.424L198.863 87.8633C200.857 86.9122 203.739 87.4075 205.302 88.9696L209.227 92.8954C210.789 94.4575 210.439 96.4948 208.445 97.4458L142.276 129.007C140.282 129.958 137.399 129.463 135.837 127.901L131.911 123.975Z" fill="#465E82"/>
<path fill-rule="evenodd" clip-rule="evenodd" d="M25.5452 17.6097C23.9831 16.0476 24.3332 14.0103 26.3271 13.0592L92.4965 -18.502C94.4905 -19.453 97.3732 -18.9577 98.9353 -17.3956L102.861 -13.4699C104.423 -11.9078 104.073 -9.87046 102.079 -8.9194L35.9097 22.6418C33.9158 23.5928 31.033 23.0975 29.471 21.5354L25.5452 17.6097Z" fill="#465E82"/>
<path fill-rule="evenodd" clip-rule="evenodd" d="M170.242 162.307C168.679 160.745 169.029 158.708 171.023 157.756L237.193 126.195C239.187 125.244 242.07 125.74 243.632 127.302L247.557 131.227C249.119 132.789 248.769 134.827 246.775 135.778L180.606 167.339C178.612 168.29 175.729 167.795 174.167 166.233L170.242 162.307Z" fill="#465E82"/>
<rect width="13.5518" height="13.5518" rx="5" transform="matrix(0.902585 -0.430511 0.707107 0.707107 -20.9121 7.2832)" fill="#465E82"/>
<rect width="13.5518" height="13.5518" rx="5" transform="matrix(0.902585 -0.430511 0.707107 0.707107 123.785 151.98)" fill="#465E82"/>
<rect width="13.5518" height="13.5518" rx="5" transform="matrix(0.902585 -0.430511 0.707107 0.707107 104.62 132.816)" fill="#465E82"/>
<rect width="13.5518" height="13.5518" rx="5" transform="matrix(0.902585 -0.430511 0.707107 0.707107 -1.74707 26.4492)" fill="#465E82"/>
<rect width="13.5518" height="13.5518" rx="5" transform="matrix(0.902585 -0.430511 0.707107 0.707107 142.95 171.146)" fill="#465E82"/>
<path fill-rule="evenodd" clip-rule="evenodd" d="M25.5402 53.7365C24.7591 52.9554 24.9342 51.9368 25.9311 51.4612L87.1487 22.262C88.1457 21.7864 89.587 22.0341 90.3681 22.8152L97.1223 29.5693C97.9033 30.3504 97.7283 31.369 96.7313 31.8445L35.5137 61.0438C34.5168 61.5194 33.0754 61.2717 32.2943 60.4906L25.5402 53.7365Z" fill="#0F1E34"/>
<path fill-rule="evenodd" clip-rule="evenodd" d="M61.9543 90.1505C61.1732 89.3695 61.3482 88.3508 62.3452 87.8753L148.026 47.0076C149.023 46.5321 150.464 46.7797 151.246 47.5608L158 54.3149C158.781 55.096 158.606 56.1146 157.609 56.5902L71.9278 97.4579C70.9308 97.9334 69.4895 97.6857 68.7084 96.9047L61.9543 90.1505Z" fill="#0F1E34"/>
<path fill-rule="evenodd" clip-rule="evenodd" d="M43.7472 71.9435C42.9662 71.1625 43.1412 70.1438 44.1382 69.6683L150.613 18.8824C151.61 18.4069 153.051 18.6545 153.832 19.4356L160.587 26.1898C161.368 26.9708 161.193 27.9895 160.196 28.465L53.7208 79.2509C52.7238 79.7264 51.2824 79.4787 50.5014 78.6977L43.7472 71.9435Z" fill="#0F1E34"/>
<rect width="525.811" height="42.0107" rx="8" transform="matrix(0.902585 -0.430511 0.707107 0.707107 323.021 83.8418)" fill="#213450"/>
<path fill-rule="evenodd" clip-rule="evenodd" d="M387.571 70.7091C386.79 69.9281 386.965 68.9094 387.962 68.4339L457.742 35.1507C458.739 34.6751 460.18 34.9228 460.962 35.7039L467.716 42.458C468.497 43.2391 468.322 44.2577 467.325 44.7332L397.545 78.0165C396.548 78.492 395.107 78.2443 394.326 77.4633L387.571 70.7091Z" fill="#465E82"/>
<path fill-rule="evenodd" clip-rule="evenodd" d="M552.699 -8.05258C551.918 -8.83363 552.093 -9.85229 553.09 -10.3278L691.368 -76.2827C692.364 -76.7582 693.806 -76.5105 694.587 -75.7295L701.341 -68.9753C702.122 -68.1943 701.947 -67.1756 700.95 -66.7001L562.673 -0.745237C561.676 -0.269707 560.235 -0.517379 559.454 -1.29843L552.699 -8.05258Z" fill="#465E82"/>
<circle cx="9.48627" cy="9.48627" r="9.48627" transform="matrix(0.902585 -0.430511 0.707107 0.707107 346.323 85.4648)" fill="#465E82"/>
<rect width="525.811" height="42.0107" rx="8" transform="matrix(0.902585 -0.430511 0.707107 0.707107 284.69 45.5117)" fill="#213450"/>
<path fill-rule="evenodd" clip-rule="evenodd" d="M349.241 32.3791C348.46 31.598 348.635 30.5794 349.632 30.1038L387.61 11.9895C388.607 11.514 390.048 11.7617 390.829 12.5427L397.583 19.2969C398.364 20.078 398.189 21.0966 397.192 21.5721L359.215 39.6864C358.218 40.162 356.777 39.9143 355.996 39.1332L349.241 32.3791Z" fill="#465E82"/>
<circle cx="9.48627" cy="9.48627" r="9.48627" transform="matrix(0.902585 -0.430511 0.707107 0.707107 307.993 47.1348)" fill="#465E82"/>
<rect width="525.811" height="42.0107" rx="8" transform="matrix(0.902585 -0.430511 0.707107 0.707107 246.36 7.18164)" fill="#213450"/>
<path fill-rule="evenodd" clip-rule="evenodd" d="M310.911 -5.95102C310.13 -6.73207 310.305 -7.75073 311.302 -8.22626L365.181 -33.925C366.178 -34.4005 367.619 -34.1529 368.4 -33.3718L375.154 -26.6177C375.935 -25.8366 375.76 -24.818 374.763 -24.3424L320.885 1.35633C319.888 1.83186 318.446 1.58418 317.665 0.803135L310.911 -5.95102Z" fill="#465E82"/>
<circle cx="9.48627" cy="9.48627" r="9.48627" transform="matrix(0.902585 -0.430511 0.707107 0.707107 269.663 8.80469)" fill="#465E82"/>
<g opacity="0.3" filter="url(#filter4_f_1301_18717)">
</g>
</g>
<defs>
<filter id="filter0_d_1301_18717" x="-265.887" y="131.432" width="1254.75" height="866.117" filterUnits="userSpaceOnUse" color-interpolation-filters="sRGB">
<feFlood flood-opacity="0" result="BackgroundImageFix"/>
<feColorMatrix in="SourceAlpha" type="matrix" values="0 0 0 0 0 0 0 0 0 0 0 0 0 0 0 0 0 0 127 0" result="hardAlpha"/>
<feMorphology radius="10" operator="erode" in="SourceAlpha" result="effect1_dropShadow_1301_18717"/>
<feOffset dy="25"/>
<feGaussianBlur stdDeviation="25"/>
<feColorMatrix type="matrix" values="0 0 0 0 0.021875 0 0 0 0 0.0395148 0 0 0 0 0.125 0 0 0 1 0"/>
<feBlend mode="normal" in2="BackgroundImageFix" result="effect1_dropShadow_1301_18717"/>
<feBlend mode="normal" in="SourceGraphic" in2="effect1_dropShadow_1301_18717" result="shape"/>
</filter>
<filter id="filter1_f_1301_18717" x="285.285" y="396.459" width="536.093" height="301.201" filterUnits="userSpaceOnUse" color-interpolation-filters="sRGB">
<feFlood flood-opacity="0" result="BackgroundImageFix"/>
<feBlend mode="normal" in="SourceGraphic" in2="BackgroundImageFix" result="shape"/>
<feGaussianBlur stdDeviation="15" result="effect1_foregroundBlur_1301_18717"/>
</filter>
<filter id="filter2_d_1301_18717" x="-141.887" y="777.432" width="1254.75" height="866.117" filterUnits="userSpaceOnUse" color-interpolation-filters="sRGB">
<feFlood flood-opacity="0" result="BackgroundImageFix"/>
<feColorMatrix in="SourceAlpha" type="matrix" values="0 0 0 0 0 0 0 0 0 0 0 0 0 0 0 0 0 0 127 0" result="hardAlpha"/>
<feMorphology radius="10" operator="erode" in="SourceAlpha" result="effect1_dropShadow_1301_18717"/>
<feOffset dy="25"/>
<feGaussianBlur stdDeviation="25"/>
<feColorMatrix type="matrix" values="0 0 0 0 0.021875 0 0 0 0 0.0395148 0 0 0 0 0.125 0 0 0 1 0"/>
<feBlend mode="normal" in2="BackgroundImageFix" result="effect1_dropShadow_1301_18717"/>
<feBlend mode="normal" in="SourceGraphic" in2="effect1_dropShadow_1301_18717" result="shape"/>
</filter>
<filter id="filter3_d_1301_18717" x="-331.887" y="-549.568" width="1254.75" height="866.117" filterUnits="userSpaceOnUse" color-interpolation-filters="sRGB">
<feFlood flood-opacity="0" result="BackgroundImageFix"/>
<feColorMatrix in="SourceAlpha" type="matrix" values="0 0 0 0 0 0 0 0 0 0 0 0 0 0 0 0 0 0 127 0" result="hardAlpha"/>
<feMorphology radius="10" operator="erode" in="SourceAlpha" result="effect1_dropShadow_1301_18717"/>
<feOffset dy="25"/>
<feGaussianBlur stdDeviation="25"/>
<feColorMatrix type="matrix" values="0 0 0 0 0.021875 0 0 0 0 0.0395148 0 0 0 0 0.125 0 0 0 1 0"/>
<feBlend mode="normal" in2="BackgroundImageFix" result="effect1_dropShadow_1301_18717"/>
<feBlend mode="normal" in="SourceGraphic" in2="effect1_dropShadow_1301_18717" result="shape"/>
</filter>
<filter id="filter4_f_1301_18717" x="219.285" y="-284.541" width="536.093" height="301.201" filterUnits="userSpaceOnUse" color-interpolation-filters="sRGB">
<feFlood flood-opacity="0" result="BackgroundImageFix"/>
<feBlend mode="normal" in="SourceGraphic" in2="BackgroundImageFix" result="shape"/>
<feGaussianBlur stdDeviation="15" result="effect1_foregroundBlur_1301_18717"/>
</filter>
</defs>
</svg>
